<?xml version="1.0" encoding="utf-8"?>
<!-- Generator: Adobe Illustrator 19.0.1, SVG Export Plug-In . SVG Version: 6.00 Build 0)  -->
<svg version="1.1" id="Слой_1" xmlns="http://www.w3.org/2000/svg" xmlns:xlink="http://www.w3.org/1999/xlink" x="0px" y="0px"
	 viewBox="0 0 211.4 151.4" style="enable-background:new 0 0 211.4 151.4;" xml:space="preserve">
<style type="text/css">
	.st0{fill:#726C6E;}
	.st1{fill:#FFFFF1;}
	.st2{fill:none;stroke:#FFFFF1;stroke-width:2;stroke-miterlimit:10;}
</style>
<g>
	<rect class="st0" width="211.4" height="151.4"/>
	<g>
		<path class="st1" d="M33.8,121.6c0.7-1.4,2.7-2.5,4.5-2.5c3.5,0,6.4,2.9,6.4,6.4c0,3.6-2.9,6.5-6.4,6.5c-3.5,0-6.4-3-6.4-6.6v-5.5
			c0-2.8,2-5,4.7-5h5l0.6,1.7h-5.7c-1.7,0-2.9,1.5-2.9,3.3V121.6z M42.9,125.5c0-2.6-2.1-4.7-4.5-4.7s-4.5,2.1-4.5,4.7
			c0,2.7,1.8,4.8,4.5,4.8C40.8,130.3,42.9,128.1,42.9,125.5z M58.8,130.1c-0.9,1.1-3,1.9-4.7,1.9c-3.5,0-6.4-3-6.4-6.7
			c0-3.6,2.9-6.6,6.4-6.6c2.4,0,4.2,1.3,5.4,3.1l-9.3,6.3c0.5,1.2,2.3,2.1,3.9,2.1c1.9,0,4-1.3,4.7-2.8h0V130.1z M57,121.6
			c-0.5-0.6-1.8-1.1-2.9-1.1c-2.6,0-4.7,2.1-4.7,4.8c0,0.5,0,1.1,0.2,1.4L57,121.6z M69.3,131.6h-1.6v-9.3l-5.4,9.3h-2l7.4-12.5h1.6
			V131.6z M73.2,114.8h1.6v6.5c1-1.4,2.7-2.5,4.7-2.5c3.5,0,6.4,2.9,6.4,6.6c0,3.7-2.9,6.7-6.4,6.7c-1.9,0-3.8-1.1-4.7-2.6v2.3h-1.6
			V114.8z M84.2,125.3c0-2.7-2.1-4.9-4.7-4.9c-2.6,0-4.7,2.2-4.7,4.9c0,2.8,1.9,5,4.7,5C82.1,130.3,84.2,128.1,84.2,125.3z
			 M86.7,119.1h1.6v12.5h-1.6V119.1z M102.6,119.1v12.5H101V130c-0.5,1.1-2.4,2-4.1,2c-2.7,0-5-2.3-5-5.2v-7.7h1.6v7.3
			c0,2.1,1.7,3.9,3.7,3.9c2.1,0,3.7-1.7,3.7-3.9v-7.3H102.6z M95.3,114.8c0.1,0.8,1,1.5,1.9,1.5c0.8,0,1.7-0.6,1.9-1.5h1.6
			c-0.4,1.6-2,3-3.5,3c-1.6,0-3.2-1.3-3.5-3H95.3z M115,114.8h1.6v11.6l5.3-7.3h2.1l-4.7,6.1l5.2,6.4h-2.1l-4.1-5.2l-1.6,2.2v2.9
			H115V114.8z M125.3,125.3c0-3.6,2.9-6.6,6.4-6.6c3.5,0,6.4,3,6.4,6.6c0,3.7-2.9,6.7-6.4,6.7C128.2,132,125.3,129.1,125.3,125.3z
			 M136.4,125.3c0-2.7-2.1-4.9-4.7-4.9c-2.6,0-4.7,2.2-4.7,4.9c0,2.8,1.9,5,4.7,5C134.3,130.3,136.4,128.1,136.4,125.3z M149,131.6
			h-1.6v-9.3l-5.4,9.3h-2l7.4-12.5h1.6V131.6z M152.5,125.3c0-3.6,2.9-6.6,6.4-6.6c3.5,0,6.4,3,6.4,6.6c0,3.7-2.9,6.7-6.4,6.7
			C155.3,132,152.5,129.1,152.5,125.3z M163.6,125.3c0-2.7-2.1-4.9-4.7-4.9c-2.6,0-4.7,2.2-4.7,4.9c0,2.8,1.9,5,4.7,5
			C161.5,130.3,163.6,128.1,163.6,125.3z M178.8,127.8h1.8c-0.7,2.3-3.3,4.2-5.9,4.2c-3.5,0-6.4-3-6.4-6.7c0-3.6,2.9-6.6,6.4-6.6
			c2.6,0,5.1,1.7,5.9,3.9h-1.9c-0.7-1.2-2.4-2.2-3.9-2.2c-2.6,0-4.7,2.2-4.7,4.9c0,2.8,1.9,5,4.7,5
			C176.3,130.3,178.1,129.2,178.8,127.8z"/>
		<g>
			<g>
				<line class="st2" x1="106.3" y1="28.9" x2="106.3" y2="105.7"/>
				<g>
					<path class="st2" d="M106.2,29c1.3-2.6,3.3-4.3,5.6-4.3c2.3,0,4.3,1.7,5.6,4.3"/>
					<path class="st2" d="M95,29c1.3-2.6,3.3-4.3,5.6-4.3c2.3,0,4.3,1.7,5.6,4.3"/>
				</g>
				<g>
					<line class="st2" x1="106.2" y1="43.4" x2="112.5" y2="37.1"/>
					<line class="st2" x1="106.1" y1="43.4" x2="99.9" y2="37.1"/>
				</g>
				<g>
					<line class="st2" x1="106.2" y1="70" x2="112.5" y2="63.7"/>
					<line class="st2" x1="106.1" y1="70" x2="99.9" y2="63.7"/>
				</g>
				<g>
					<line class="st2" x1="106.2" y1="96.6" x2="112.5" y2="90.4"/>
					<line class="st2" x1="106.1" y1="96.6" x2="99.9" y2="90.4"/>
				</g>
				<circle class="st2" cx="106.4" cy="21" r="1.6"/>
				<g>
					<g>
						<line class="st2" x1="106.2" y1="56.7" x2="113.6" y2="49.3"/>
						<line class="st2" x1="106.1" y1="56.7" x2="98.8" y2="49.3"/>
					</g>
					
						<ellipse transform="matrix(0.8001 0.5998 -0.5998 0.8001 50.8723 -60.5482)" class="st2" cx="116.3" cy="46.1" rx="2.4" ry="4.4"/>
					
						<ellipse transform="matrix(-0.8001 0.5998 -0.5998 -0.8001 200.5311 25.2957)" class="st2" cx="96.1" cy="46.1" rx="2.4" ry="4.4"/>
				</g>
				<g>
					<g>
						<line class="st2" x1="106.2" y1="83.3" x2="113.6" y2="75.9"/>
						<line class="st2" x1="106.1" y1="83.3" x2="98.8" y2="75.9"/>
					</g>
					
						<ellipse transform="matrix(0.8001 0.5998 -0.5998 0.8001 66.8445 -55.2258)" class="st2" cx="116.3" cy="72.7" rx="2.4" ry="4.4"/>
					
						<ellipse transform="matrix(-0.8001 0.5998 -0.5998 -0.8001 216.5033 73.2277)" class="st2" cx="96.1" cy="72.7" rx="2.4" ry="4.4"/>
				</g>
			</g>
			<g>
				<line class="st2" x1="172.8" y1="67.4" x2="106.3" y2="105.8"/>
				<g>
					<path class="st2" d="M172.5,67.4c2.9-0.2,5.4,0.7,6.5,2.7c1.1,2,0.7,4.6-1,7"/>
					<path class="st2" d="M167,57.7c2.9-0.2,5.4,0.7,6.5,2.7c1.1,2,0.7,4.6-1,7"/>
				</g>
				<g>
					<line class="st2" x1="160.1" y1="74.6" x2="168.7" y2="76.8"/>
					<line class="st2" x1="160.1" y1="74.5" x2="162.4" y2="66"/>
				</g>
				<g>
					<line class="st2" x1="137.1" y1="87.9" x2="145.6" y2="90.1"/>
					<line class="st2" x1="137" y1="87.8" x2="139.4" y2="79.3"/>
				</g>
				<g>
					<line class="st2" x1="114" y1="101.2" x2="122.6" y2="103.5"/>
					<line class="st2" x1="114" y1="101.1" x2="116.3" y2="92.6"/>
				</g>
				<circle class="st2" cx="179.6" cy="63.6" r="1.6"/>
				<g>
					<g>
						<line class="st2" x1="148.6" y1="81.2" x2="158.7" y2="83.9"/>
						<line class="st2" x1="148.6" y1="81.2" x2="151.3" y2="71.1"/>
					</g>
					
						<ellipse transform="matrix(-0.1194 0.9928 -0.9928 -0.1194 266.3137 -66.952)" class="st2" cx="162.8" cy="84.6" rx="2.4" ry="4.4"/>
					
						<ellipse transform="matrix(-0.9195 -0.393 0.393 -0.9195 266.8001 188.8204)" class="st2" cx="152.7" cy="67.1" rx="2.4" ry="4.4"/>
				</g>
				<g>
					<g>
						<line class="st2" x1="125.5" y1="94.6" x2="135.7" y2="97.2"/>
						<line class="st2" x1="125.5" y1="94.5" x2="128.3" y2="84.4"/>
					</g>
					
						<ellipse transform="matrix(-0.1194 0.9928 -0.9928 -0.1194 253.7183 -29.1537)" class="st2" cx="139.8" cy="97.9" rx="2.4" ry="4.4"/>
					
						<ellipse transform="matrix(-0.9195 -0.393 0.393 -0.9195 217.3037 205.3139)" class="st2" cx="129.7" cy="80.4" rx="2.4" ry="4.4"/>
				</g>
			</g>
			<g>
				<line class="st2" x1="39.8" y1="67.1" x2="106.3" y2="105.5"/>
				<g>
					<path class="st2" d="M39.8,67.3c-1.6-2.4-2.1-5-1-7c1.1-2,3.6-2.9,6.6-2.7"/>
					<path class="st2" d="M34.3,77c-1.6-2.4-2.1-5-1-7c1.1-2,3.6-2.9,6.6-2.7"/>
				</g>
				<g>
					<line class="st2" x1="52.3" y1="74.5" x2="49.9" y2="65.9"/>
					<line class="st2" x1="52.2" y1="74.5" x2="43.7" y2="76.8"/>
				</g>
				<g>
					<line class="st2" x1="75.3" y1="87.8" x2="73" y2="79.3"/>
					<line class="st2" x1="75.3" y1="87.9" x2="66.7" y2="90.1"/>
				</g>
				<g>
					<line class="st2" x1="98.4" y1="101.1" x2="96.1" y2="92.6"/>
					<line class="st2" x1="98.3" y1="101.2" x2="89.8" y2="103.4"/>
				</g>
				<circle class="st2" cx="33" cy="63.1" r="1.6"/>
				<g>
					<g>
						<line class="st2" x1="63.8" y1="81.1" x2="61" y2="71"/>
						<line class="st2" x1="63.8" y1="81.2" x2="53.6" y2="83.9"/>
					</g>
					
						<ellipse transform="matrix(0.9195 -0.393 0.393 0.9195 -21.5734 28.8252)" class="st2" cx="59.6" cy="67.1" rx="2.4" ry="4.4"/>
					
						<ellipse transform="matrix(0.1194 0.9928 -0.9928 0.1194 127.599 25.381)" class="st2" cx="49.5" cy="84.6" rx="2.4" ry="4.4"/>
				</g>
				<g>
					<g>
						<line class="st2" x1="86.9" y1="94.4" x2="84.1" y2="84.3"/>
						<line class="st2" x1="86.8" y1="94.5" x2="76.7" y2="97.2"/>
					</g>
					
						<ellipse transform="matrix(0.9195 -0.393 0.393 0.9195 -24.9502 38.9588)" class="st2" cx="82.7" cy="80.4" rx="2.4" ry="4.4"/>
					
						<ellipse transform="matrix(0.1194 0.9928 -0.9928 0.1194 161.1233 14.2098)" class="st2" cx="72.6" cy="97.9" rx="2.4" ry="4.4"/>
				</g>
			</g>
			<g>
				<line class="st2" x1="106.3" y1="28.9" x2="106.3" y2="105.7"/>
				<g>
					<path class="st2" d="M106.2,29c1.3-2.6,3.3-4.3,5.6-4.3c2.3,0,4.3,1.7,5.6,4.3"/>
					<path class="st2" d="M95,29c1.3-2.6,3.3-4.3,5.6-4.3c2.3,0,4.3,1.7,5.6,4.3"/>
				</g>
				<g>
					<line class="st2" x1="106.2" y1="43.4" x2="112.5" y2="37.1"/>
					<line class="st2" x1="106.1" y1="43.4" x2="99.9" y2="37.1"/>
				</g>
				<g>
					<line class="st2" x1="106.2" y1="70" x2="112.5" y2="63.7"/>
					<line class="st2" x1="106.1" y1="70" x2="99.9" y2="63.7"/>
				</g>
				<g>
					<line class="st2" x1="106.2" y1="96.6" x2="112.5" y2="90.4"/>
					<line class="st2" x1="106.1" y1="96.6" x2="99.9" y2="90.4"/>
				</g>
				<circle class="st2" cx="106.4" cy="21" r="1.6"/>
				<g>
					<g>
						<line class="st2" x1="106.2" y1="56.7" x2="113.6" y2="49.3"/>
						<line class="st2" x1="106.1" y1="56.7" x2="98.8" y2="49.3"/>
					</g>
					
						<ellipse transform="matrix(0.8001 0.5998 -0.5998 0.8001 50.8723 -60.5482)" class="st2" cx="116.3" cy="46.1" rx="2.4" ry="4.4"/>
					
						<ellipse transform="matrix(-0.8001 0.5998 -0.5998 -0.8001 200.5311 25.2957)" class="st2" cx="96.1" cy="46.1" rx="2.4" ry="4.4"/>
				</g>
				<g>
					<g>
						<line class="st2" x1="106.2" y1="83.3" x2="113.6" y2="75.9"/>
						<line class="st2" x1="106.1" y1="83.3" x2="98.8" y2="75.9"/>
					</g>
					
						<ellipse transform="matrix(0.8001 0.5998 -0.5998 0.8001 66.8445 -55.2258)" class="st2" cx="116.3" cy="72.7" rx="2.4" ry="4.4"/>
					
						<ellipse transform="matrix(-0.8001 0.5998 -0.5998 -0.8001 216.5033 73.2277)" class="st2" cx="96.1" cy="72.7" rx="2.4" ry="4.4"/>
				</g>
			</g>
		</g>
		<line class="st2" x1="24.2" y1="107.1" x2="186.2" y2="107.1"/>
	</g>
</g>
</svg>
