<?xml version="1.0" encoding="utf-8"?>
<!-- Generator: Adobe Illustrator 19.0.1, SVG Export Plug-In . SVG Version: 6.00 Build 0)  -->
<svg version="1.1" id="Слой_1" xmlns="http://www.w3.org/2000/svg" xmlns:xlink="http://www.w3.org/1999/xlink" x="0px" y="0px"
	 viewBox="0 0 162 113.6" style="enable-background:new 0 0 162 113.6;" xml:space="preserve">
<style type="text/css">
	.st0{fill:#FFFFF1;}
	.st1{fill:none;stroke:#FFFFF1;stroke-width:2;stroke-miterlimit:10;}
</style>
<path class="st0" d="M8.4,103.2c0.7-1.4,2.7-2.5,4.5-2.5c3.5,0,6.4,2.9,6.4,6.4c0,3.6-2.9,6.5-6.4,6.5c-3.5,0-6.4-3-6.4-6.6v-5.5
	c0-2.8,2-5,4.7-5h5l0.6,1.7h-5.7c-1.7,0-2.9,1.5-2.9,3.3V103.2z M17.5,107.1c0-2.6-2.1-4.7-4.5-4.7s-4.5,2.1-4.5,4.7
	c0,2.7,1.8,4.8,4.5,4.8C15.4,111.9,17.5,109.7,17.5,107.1z M33.4,111.7c-0.9,1.1-3,1.9-4.7,1.9c-3.5,0-6.4-3-6.4-6.7
	c0-3.6,2.9-6.6,6.4-6.6c2.4,0,4.2,1.3,5.4,3.1l-9.3,6.3c0.5,1.2,2.3,2.1,3.9,2.1c1.9,0,4-1.3,4.7-2.8h0V111.7z M31.7,103.2
	c-0.5-0.6-1.8-1.1-2.9-1.1c-2.6,0-4.7,2.1-4.7,4.8c0,0.5,0,1.1,0.2,1.4L31.7,103.2z M43.9,113.3h-1.6V104l-5.4,9.3h-2l7.4-12.5h1.6
	V113.3z M47.8,96.4h1.6v6.5c1-1.4,2.7-2.5,4.7-2.5c3.5,0,6.4,2.9,6.4,6.6c0,3.7-2.9,6.7-6.4,6.7c-1.9,0-3.8-1.1-4.7-2.6v2.3h-1.6
	V96.4z M58.8,106.9c0-2.7-2.1-4.9-4.7-4.9c-2.6,0-4.7,2.2-4.7,4.9c0,2.8,1.9,5,4.7,5C56.7,111.9,58.8,109.7,58.8,106.9z M61.4,100.7
	H63v12.5h-1.6V100.7z M77.2,100.7v12.5h-1.6v-1.6c-0.5,1.1-2.4,2-4.1,2c-2.7,0-5-2.3-5-5.2v-7.7h1.6v7.3c0,2.1,1.7,3.9,3.7,3.9
	c2.1,0,3.7-1.7,3.7-3.9v-7.3H77.2z M69.9,96.4c0.1,0.8,1,1.5,1.9,1.5c0.8,0,1.7-0.6,1.9-1.5h1.6c-0.4,1.6-2,3-3.5,3
	c-1.6,0-3.2-1.3-3.5-3H69.9z M89.6,96.4h1.6V108l5.3-7.3h2.1l-4.7,6.1l5.2,6.4H97l-4.1-5.2l-1.6,2.2v2.9h-1.6V96.4z M99.9,106.9
	c0-3.6,2.9-6.6,6.4-6.6c3.5,0,6.4,3,6.4,6.6c0,3.7-2.9,6.7-6.4,6.7C102.8,113.6,99.9,110.7,99.9,106.9z M111,106.9
	c0-2.7-2.1-4.9-4.7-4.9c-2.6,0-4.7,2.2-4.7,4.9c0,2.8,1.9,5,4.7,5C109,111.9,111,109.7,111,106.9z M123.6,113.3H122V104l-5.4,9.3h-2
	l7.4-12.5h1.6V113.3z M127.1,106.9c0-3.6,2.9-6.6,6.4-6.6c3.5,0,6.4,3,6.4,6.6c0,3.7-2.9,6.7-6.4,6.7
	C129.9,113.6,127.1,110.7,127.1,106.9z M138.2,106.9c0-2.7-2.1-4.9-4.7-4.9c-2.6,0-4.7,2.2-4.7,4.9c0,2.8,1.9,5,4.7,5
	C136.1,111.9,138.2,109.7,138.2,106.9z M153.4,109.4h1.8c-0.7,2.3-3.3,4.2-5.9,4.2c-3.5,0-6.4-3-6.4-6.7c0-3.6,2.9-6.6,6.4-6.6
	c2.6,0,5.1,1.7,5.9,3.9h-1.9c-0.7-1.2-2.4-2.2-3.9-2.2c-2.6,0-4.7,2.2-4.7,4.9c0,2.8,1.9,5,4.7,5
	C150.9,111.9,152.7,110.8,153.4,109.4z"/>
<g>
	<g>
		<line class="st1" x1="81" y1="10.5" x2="81" y2="87.3"/>
		<g>
			<path class="st1" d="M80.8,10.7c1.3-2.6,3.3-4.3,5.6-4.3c2.3,0,4.3,1.7,5.6,4.3"/>
			<path class="st1" d="M69.7,10.7C70.9,8,73,6.3,75.2,6.3c2.3,0,4.3,1.7,5.6,4.3"/>
		</g>
		<g>
			<line class="st1" x1="80.8" y1="25" x2="87.1" y2="18.7"/>
			<line class="st1" x1="80.8" y1="25" x2="74.5" y2="18.7"/>
		</g>
		<g>
			<line class="st1" x1="80.8" y1="51.6" x2="87.1" y2="45.3"/>
			<line class="st1" x1="80.8" y1="51.6" x2="74.5" y2="45.3"/>
		</g>
		<g>
			<line class="st1" x1="80.8" y1="78.3" x2="87.1" y2="72"/>
			<line class="st1" x1="80.8" y1="78.3" x2="74.5" y2="72"/>
		</g>
		<circle class="st1" cx="81" cy="2.6" r="1.6"/>
		<g>
			<g>
				<line class="st1" x1="80.8" y1="38.3" x2="88.2" y2="30.9"/>
				<line class="st1" x1="80.8" y1="38.3" x2="73.4" y2="30.9"/>
			</g>
			
				<ellipse transform="matrix(0.8001 0.5998 -0.5998 0.8001 34.7657 -48.9956)" class="st1" cx="90.9" cy="27.7" rx="2.4" ry="4.4"/>
			
				<ellipse transform="matrix(-0.8001 0.5998 -0.5998 -0.8001 143.7984 7.4177)" class="st1" cx="70.7" cy="27.7" rx="2.4" ry="4.4"/>
		</g>
		<g>
			<g>
				<line class="st1" x1="80.8" y1="64.9" x2="88.2" y2="57.5"/>
				<line class="st1" x1="80.8" y1="64.9" x2="73.4" y2="57.5"/>
			</g>
			
				<ellipse transform="matrix(0.8001 0.5998 -0.5998 0.8001 50.7379 -43.6733)" class="st1" cx="90.9" cy="54.3" rx="2.4" ry="4.4"/>
			
				<ellipse transform="matrix(-0.8001 0.5998 -0.5998 -0.8001 159.7706 55.3498)" class="st1" cx="70.7" cy="54.3" rx="2.4" ry="4.4"/>
		</g>
	</g>
	<g>
		<line class="st1" x1="147.4" y1="49" x2="80.9" y2="87.4"/>
		<g>
			<path class="st1" d="M147.1,49c2.9-0.2,5.4,0.7,6.5,2.7c1.1,2,0.7,4.6-1,7"/>
			<path class="st1" d="M141.6,39.3c2.9-0.2,5.4,0.7,6.5,2.7c1.1,2,0.7,4.6-1,7"/>
		</g>
		<g>
			<line class="st1" x1="134.7" y1="56.2" x2="143.3" y2="58.4"/>
			<line class="st1" x1="134.7" y1="56.1" x2="137" y2="47.6"/>
		</g>
		<g>
			<line class="st1" x1="111.7" y1="69.5" x2="120.2" y2="71.8"/>
			<line class="st1" x1="111.6" y1="69.4" x2="114" y2="60.9"/>
		</g>
		<g>
			<line class="st1" x1="88.6" y1="82.8" x2="97.2" y2="85.1"/>
			<line class="st1" x1="88.6" y1="82.7" x2="90.9" y2="74.2"/>
		</g>
		<circle class="st1" cx="154.2" cy="45.2" r="1.6"/>
		<g>
			<g>
				<line class="st1" x1="123.2" y1="62.9" x2="133.3" y2="65.5"/>
				<line class="st1" x1="123.2" y1="62.8" x2="125.9" y2="52.7"/>
			</g>
			
				<ellipse transform="matrix(-0.1194 0.9928 -0.9928 -0.1194 219.6344 -62.3338)" class="st1" cx="137.5" cy="66.2" rx="2.4" ry="4.4"/>
			
				<ellipse transform="matrix(-0.9195 -0.393 0.393 -0.9195 225.2953 143.5401)" class="st1" cx="127.3" cy="48.7" rx="2.4" ry="4.4"/>
		</g>
		<g>
			<g>
				<line class="st1" x1="100.2" y1="76.2" x2="110.3" y2="78.8"/>
				<line class="st1" x1="100.1" y1="76.1" x2="102.9" y2="66"/>
			</g>
			
				<ellipse transform="matrix(-0.1194 0.9928 -0.9928 -0.1194 207.039 -24.5355)" class="st1" cx="114.4" cy="79.5" rx="2.4" ry="4.4"/>
			
				<ellipse transform="matrix(-0.9195 -0.393 0.393 -0.9195 175.7988 160.0336)" class="st1" cx="104.3" cy="62" rx="2.4" ry="4.4"/>
		</g>
	</g>
	<g>
		<line class="st1" x1="14.4" y1="48.7" x2="80.9" y2="87.1"/>
		<g>
			<path class="st1" d="M14.4,48.9c-1.6-2.4-2.1-5-1-7c1.1-2,3.6-2.9,6.6-2.7"/>
			<path class="st1" d="M8.9,58.6c-1.6-2.4-2.1-5-1-7c1.1-2,3.6-2.9,6.6-2.7"/>
		</g>
		<g>
			<line class="st1" x1="26.9" y1="56.1" x2="24.6" y2="47.5"/>
			<line class="st1" x1="26.8" y1="56.2" x2="18.3" y2="58.4"/>
		</g>
		<g>
			<line class="st1" x1="49.9" y1="69.4" x2="47.6" y2="60.9"/>
			<line class="st1" x1="49.9" y1="69.5" x2="41.3" y2="71.7"/>
		</g>
		<g>
			<line class="st1" x1="73" y1="82.7" x2="70.7" y2="74.2"/>
			<line class="st1" x1="73" y1="82.8" x2="64.4" y2="85"/>
		</g>
		<circle class="st1" cx="7.6" cy="44.7" r="1.6"/>
		<g>
			<g>
				<line class="st1" x1="38.4" y1="62.7" x2="35.7" y2="52.6"/>
				<line class="st1" x1="38.4" y1="62.8" x2="28.2" y2="65.5"/>
			</g>
			<ellipse transform="matrix(0.9195 -0.393 0.393 0.9195 -16.3883 17.3681)" class="st1" cx="34.2" cy="48.7" rx="2.4" ry="4.4"/>
			<ellipse transform="matrix(0.1194 0.9928 -0.9928 0.1194 86.9835 34.3919)" class="st1" cx="24.1" cy="66.2" rx="2.4" ry="4.4"/>
		</g>
		<g>
			<g>
				<line class="st1" x1="61.5" y1="76" x2="58.7" y2="65.9"/>
				<line class="st1" x1="61.4" y1="76.1" x2="51.3" y2="78.8"/>
			</g>
			<ellipse transform="matrix(0.9195 -0.393 0.393 0.9195 -19.7651 27.5018)" class="st1" cx="57.3" cy="62" rx="2.4" ry="4.4"/>
			
				<ellipse transform="matrix(0.1194 0.9928 -0.9928 0.1194 120.5077 23.2208)" class="st1" cx="47.2" cy="79.5" rx="2.4" ry="4.4"/>
		</g>
	</g>
	<g>
		<line class="st1" x1="81" y1="10.5" x2="81" y2="87.3"/>
		<g>
			<path class="st1" d="M80.8,10.7c1.3-2.6,3.3-4.3,5.6-4.3c2.3,0,4.3,1.7,5.6,4.3"/>
			<path class="st1" d="M69.7,10.7C70.9,8,73,6.3,75.2,6.3c2.3,0,4.3,1.7,5.6,4.3"/>
		</g>
		<g>
			<line class="st1" x1="80.8" y1="25" x2="87.1" y2="18.7"/>
			<line class="st1" x1="80.8" y1="25" x2="74.5" y2="18.7"/>
		</g>
		<g>
			<line class="st1" x1="80.8" y1="51.6" x2="87.1" y2="45.3"/>
			<line class="st1" x1="80.8" y1="51.6" x2="74.5" y2="45.3"/>
		</g>
		<g>
			<line class="st1" x1="80.8" y1="78.3" x2="87.1" y2="72"/>
			<line class="st1" x1="80.8" y1="78.3" x2="74.5" y2="72"/>
		</g>
		<circle class="st1" cx="81" cy="2.6" r="1.6"/>
		<g>
			<g>
				<line class="st1" x1="80.8" y1="38.3" x2="88.2" y2="30.9"/>
				<line class="st1" x1="80.8" y1="38.3" x2="73.4" y2="30.9"/>
			</g>
			
				<ellipse transform="matrix(0.8001 0.5998 -0.5998 0.8001 34.7657 -48.9956)" class="st1" cx="90.9" cy="27.7" rx="2.4" ry="4.4"/>
			
				<ellipse transform="matrix(-0.8001 0.5998 -0.5998 -0.8001 143.7984 7.4177)" class="st1" cx="70.7" cy="27.7" rx="2.4" ry="4.4"/>
		</g>
		<g>
			<g>
				<line class="st1" x1="80.8" y1="64.9" x2="88.2" y2="57.5"/>
				<line class="st1" x1="80.8" y1="64.9" x2="73.4" y2="57.5"/>
			</g>
			
				<ellipse transform="matrix(0.8001 0.5998 -0.5998 0.8001 50.7379 -43.6733)" class="st1" cx="90.9" cy="54.3" rx="2.4" ry="4.4"/>
			
				<ellipse transform="matrix(-0.8001 0.5998 -0.5998 -0.8001 159.7706 55.3498)" class="st1" cx="70.7" cy="54.3" rx="2.4" ry="4.4"/>
		</g>
	</g>
</g>
<line class="st1" x1="0" y1="88.4" x2="162" y2="88.4"/>
</svg>
