<?xml version="1.0" encoding="utf-8"?>
<!-- Generator: Adobe Illustrator 19.0.1, SVG Export Plug-In . SVG Version: 6.00 Build 0)  -->
<svg version="1.1" id="Слой_1" xmlns="http://www.w3.org/2000/svg" xmlns:xlink="http://www.w3.org/1999/xlink" x="0px" y="0px"
	 viewBox="0 0 288 216" style="enable-background:new 0 0 288 216;" xml:space="preserve">
<style type="text/css">
	.st0{fill:none;}
	.st1{fill:none;stroke:#FFFFF1;stroke-width:2;stroke-miterlimit:10;}
	.st2{fill:#726C6E;}
	.st3{fill:url(#Новый_узор_7);}
</style>
<pattern  x="-336" y="-172" width="152.1" height="261.8" patternUnits="userSpaceOnUse" id="Новый_узор_7" viewBox="67.1 -301.2 152.1 261.8" style="overflow:visible;">
	<g>
		<polygon class="st0" points="67.1,-301.2 219.2,-301.2 219.2,-39.4 67.1,-39.4 		"/>
		<g>
			<g>
				<line class="st1" x1="219.4" y1="-116.2" x2="219.4" y2="-39.4"/>
				<g>
					<path class="st1" d="M219.2-116c1.3-2.6,3.3-4.3,5.6-4.3c2.3,0,4.3,1.7,5.6,4.3"/>
					<path class="st1" d="M208.1-116c1.3-2.6,3.3-4.3,5.6-4.3c2.3,0,4.3,1.7,5.6,4.3"/>
				</g>
				<g>
					<line class="st1" x1="219.3" y1="-101.7" x2="225.5" y2="-108"/>
					<line class="st1" x1="219.2" y1="-101.7" x2="213" y2="-108"/>
				</g>
				<g>
					<line class="st1" x1="219.3" y1="-75.1" x2="225.5" y2="-81.3"/>
					<line class="st1" x1="219.2" y1="-75.1" x2="213" y2="-81.3"/>
				</g>
				<g>
					<line class="st1" x1="219.3" y1="-48.4" x2="225.5" y2="-54.7"/>
					<line class="st1" x1="219.2" y1="-48.4" x2="213" y2="-54.7"/>
				</g>
				<path class="st1" d="M221.1-124.1c0,0.9-0.7,1.6-1.6,1.6c-0.9,0-1.6-0.7-1.6-1.6s0.7-1.6,1.6-1.6
					C220.4-125.7,221.1-125,221.1-124.1z"/>
				<g>
					<g>
						<line class="st1" x1="219.3" y1="-88.4" x2="226.6" y2="-95.8"/>
						<line class="st1" x1="219.2" y1="-88.4" x2="211.8" y2="-95.8"/>
					</g>
					<path class="st1" d="M207.2-97.6c1.5,2,3.5,2.9,4.5,2.1c1-0.8,0.7-3-0.8-5c-1.5-2-3.5-2.9-4.5-2.1S205.7-99.6,207.2-97.6z"/>
				</g>
				<g>
					<g>
						<line class="st1" x1="219.3" y1="-61.7" x2="226.6" y2="-69.2"/>
						<line class="st1" x1="219.2" y1="-61.7" x2="211.8" y2="-69.2"/>
					</g>
					<path class="st1" d="M207.2-71c1.5,2,3.5,2.9,4.5,2.1c1-0.8,0.7-3-0.8-5c-1.5-2-3.5-2.9-4.5-2.1S205.7-72.9,207.2-71z"/>
				</g>
			</g>
			<g>
				<line class="st1" x1="285.8" y1="-77.6" x2="219.3" y2="-39.3"/>
			</g>
			<g>
				<line class="st1" x1="285.6" y1="-0.9" x2="219.1" y2="-39.3"/>
			</g>
			<g>
				<line class="st1" x1="152.6" y1="-1.2" x2="219.1" y2="-39.6"/>
			</g>
			<g>
				<line class="st1" x1="152.8" y1="-78" x2="219.3" y2="-39.6"/>
				<g>
					<path class="st1" d="M152.9-77.7c-1.6-2.4-2.1-5-1-7c1.1-2,3.6-2.9,6.6-2.7"/>
					<path class="st1" d="M147.3-68.1c-1.6-2.4-2.1-5-1-7c1.1-2,3.6-2.9,6.6-2.7"/>
				</g>
				<g>
					<line class="st1" x1="165.3" y1="-70.6" x2="163" y2="-79.1"/>
					<line class="st1" x1="165.3" y1="-70.5" x2="156.7" y2="-68.3"/>
				</g>
				<g>
					<line class="st1" x1="188.4" y1="-57.3" x2="186" y2="-65.8"/>
					<line class="st1" x1="188.3" y1="-57.2" x2="179.8" y2="-55"/>
				</g>
				<g>
					<line class="st1" x1="211.4" y1="-44" x2="209.1" y2="-52.5"/>
					<line class="st1" x1="211.4" y1="-43.9" x2="202.8" y2="-41.7"/>
				</g>
				<path class="st1" d="M146.8-83.4c0.8,0.4,1,1.4,0.6,2.2c-0.4,0.8-1.4,1-2.2,0.6c-0.8-0.4-1-1.4-0.6-2.2
					C145.1-83.5,146-83.8,146.8-83.4z"/>
				<g>
					<g>
						<line class="st1" x1="176.8" y1="-64" x2="174.1" y2="-74.1"/>
						<line class="st1" x1="176.8" y1="-63.9" x2="166.7" y2="-61.2"/>
					</g>
					<path class="st1" d="M174.8-78.9c1,2.2,0.8,4.5-0.4,5s-3-0.9-3.9-3.1c-1-2.2-0.8-4.5,0.4-5S173.9-81.2,174.8-78.9z"/>
					<path class="st1" d="M162.8-58.1c2.4-0.3,4.3-1.6,4.1-2.9c-0.2-1.3-2.2-2.1-4.7-1.8c-2.4,0.3-4.3,1.6-4.1,2.9
						C158.3-58.6,160.4-57.8,162.8-58.1z"/>
				</g>
				<g>
					<g>
						<line class="st1" x1="199.9" y1="-50.6" x2="197.1" y2="-60.7"/>
						<line class="st1" x1="199.9" y1="-50.6" x2="189.7" y2="-47.9"/>
					</g>
					<path class="st1" d="M197.9-65.6c1,2.2,0.8,4.5-0.4,5c-1.2,0.5-3-0.9-3.9-3.1c-1-2.2-0.8-4.5,0.4-5
						C195.2-69.2,196.9-67.8,197.9-65.6z"/>
					<path class="st1" d="M185.9-44.8c2.4-0.3,4.3-1.6,4.1-2.9c-0.2-1.3-2.2-2.1-4.7-1.8s-4.3,1.6-4.1,2.9
						C181.4-45.3,183.4-44.5,185.9-44.8z"/>
				</g>
			</g>
			<g>
				<line class="st1" x1="219.4" y1="-116.2" x2="219.4" y2="-39.4"/>
				<g>
					<path class="st1" d="M219.2-116c1.3-2.6,3.3-4.3,5.6-4.3c2.3,0,4.3,1.7,5.6,4.3"/>
					<path class="st1" d="M208.1-116c1.3-2.6,3.3-4.3,5.6-4.3c2.3,0,4.3,1.7,5.6,4.3"/>
				</g>
				<g>
					<line class="st1" x1="219.3" y1="-101.7" x2="225.5" y2="-108"/>
					<line class="st1" x1="219.2" y1="-101.7" x2="213" y2="-108"/>
				</g>
				<g>
					<line class="st1" x1="219.3" y1="-75.1" x2="225.5" y2="-81.3"/>
					<line class="st1" x1="219.2" y1="-75.1" x2="213" y2="-81.3"/>
				</g>
				<g>
					<line class="st1" x1="219.3" y1="-48.4" x2="225.5" y2="-54.7"/>
					<line class="st1" x1="219.2" y1="-48.4" x2="213" y2="-54.7"/>
				</g>
				<path class="st1" d="M221.1-124.1c0,0.9-0.7,1.6-1.6,1.6c-0.9,0-1.6-0.7-1.6-1.6s0.7-1.6,1.6-1.6
					C220.4-125.7,221.1-125,221.1-124.1z"/>
				<g>
					<g>
						<line class="st1" x1="219.3" y1="-88.4" x2="226.6" y2="-95.8"/>
						<line class="st1" x1="219.2" y1="-88.4" x2="211.8" y2="-95.8"/>
					</g>
					<path class="st1" d="M207.2-97.6c1.5,2,3.5,2.9,4.5,2.1c1-0.8,0.7-3-0.8-5c-1.5-2-3.5-2.9-4.5-2.1S205.7-99.6,207.2-97.6z"/>
				</g>
				<g>
					<g>
						<line class="st1" x1="219.3" y1="-61.7" x2="226.6" y2="-69.2"/>
						<line class="st1" x1="219.2" y1="-61.7" x2="211.8" y2="-69.2"/>
					</g>
					<path class="st1" d="M207.2-71c1.5,2,3.5,2.9,4.5,2.1c1-0.8,0.7-3-0.8-5c-1.5-2-3.5-2.9-4.5-2.1S205.7-72.9,207.2-71z"/>
				</g>
			</g>
		</g>
		<g>
			<g>
				<line class="st1" x1="67.3" y1="-116.2" x2="67.3" y2="-39.4"/>
				<g>
					<path class="st1" d="M67.1-116c1.3-2.6,3.3-4.3,5.6-4.3c2.3,0,4.3,1.7,5.6,4.3"/>
					<path class="st1" d="M56-116c1.3-2.6,3.3-4.3,5.6-4.3c2.3,0,4.3,1.7,5.6,4.3"/>
				</g>
				<g>
					<line class="st1" x1="67.2" y1="-101.7" x2="73.4" y2="-108"/>
					<line class="st1" x1="67.1" y1="-101.7" x2="60.8" y2="-108"/>
				</g>
				<g>
					<line class="st1" x1="67.2" y1="-75.1" x2="73.4" y2="-81.3"/>
					<line class="st1" x1="67.1" y1="-75.1" x2="60.8" y2="-81.3"/>
				</g>
				<g>
					<line class="st1" x1="67.2" y1="-48.4" x2="73.4" y2="-54.7"/>
					<line class="st1" x1="67.1" y1="-48.4" x2="60.8" y2="-54.7"/>
				</g>
				<path class="st1" d="M68.9-124.1c0,0.9-0.7,1.6-1.6,1.6s-1.6-0.7-1.6-1.6s0.7-1.6,1.6-1.6S68.9-125,68.9-124.1z"/>
				<g>
					<g>
						<line class="st1" x1="67.2" y1="-88.4" x2="74.5" y2="-95.8"/>
						<line class="st1" x1="67.1" y1="-88.4" x2="59.7" y2="-95.8"/>
					</g>
					<path class="st1" d="M79.1-97.6c-1.5,2-3.5,2.9-4.5,2.1s-0.7-3,0.8-5c1.5-2,3.5-2.9,4.5-2.1C80.9-101.8,80.6-99.6,79.1-97.6z"
						/>
				</g>
				<g>
					<g>
						<line class="st1" x1="67.2" y1="-61.7" x2="74.5" y2="-69.2"/>
						<line class="st1" x1="67.1" y1="-61.7" x2="59.7" y2="-69.2"/>
					</g>
					<path class="st1" d="M79.1-71c-1.5,2-3.5,2.9-4.5,2.1s-0.7-3,0.8-5c1.5-2,3.5-2.9,4.5-2.1C80.9-75.1,80.6-72.9,79.1-71z"/>
				</g>
			</g>
			<g>
				<line class="st1" x1="133.7" y1="-77.6" x2="67.2" y2="-39.3"/>
				<g>
					<path class="st1" d="M133.4-77.7c2.9-0.2,5.4,0.7,6.5,2.7c1.1,2,0.7,4.6-1,7"/>
					<path class="st1" d="M127.9-87.4c2.9-0.2,5.4,0.7,6.5,2.7c1.1,2,0.7,4.6-1,7"/>
				</g>
				<g>
					<line class="st1" x1="121" y1="-70.5" x2="129.6" y2="-68.2"/>
					<line class="st1" x1="121" y1="-70.6" x2="123.3" y2="-79.1"/>
				</g>
				<g>
					<line class="st1" x1="98" y1="-57.2" x2="106.5" y2="-54.9"/>
					<line class="st1" x1="97.9" y1="-57.3" x2="100.3" y2="-65.8"/>
				</g>
				<g>
					<line class="st1" x1="74.9" y1="-43.9" x2="83.5" y2="-41.6"/>
					<line class="st1" x1="74.9" y1="-43.9" x2="77.2" y2="-52.5"/>
				</g>
				<path class="st1" d="M141.3-80.1c-0.8,0.4-1.7,0.2-2.2-0.6c-0.4-0.8-0.2-1.7,0.6-2.2c0.8-0.4,1.7-0.2,2.2,0.6
					S142.1-80.6,141.3-80.1z"/>
				<g>
					<g>
						<line class="st1" x1="109.5" y1="-63.8" x2="119.6" y2="-61.2"/>
						<line class="st1" x1="109.5" y1="-63.9" x2="112.2" y2="-74"/>
					</g>
					<path class="st1" d="M123.5-58.1c-2.4-0.3-4.3-1.6-4.1-2.9c0.2-1.3,2.2-2.1,4.7-1.8c2.4,0.3,4.3,1.6,4.1,2.9
						C128-58.6,125.9-57.8,123.5-58.1z"/>
					<path class="st1" d="M111.5-78.9c-1,2.2-0.8,4.5,0.4,5c1.2,0.5,3-0.9,3.9-3.1c1-2.2,0.8-4.5-0.4-5
						C114.2-82.6,112.4-81.2,111.5-78.9z"/>
				</g>
				<g>
					<g>
						<line class="st1" x1="86.5" y1="-50.5" x2="96.6" y2="-47.9"/>
						<line class="st1" x1="86.4" y1="-50.6" x2="89.2" y2="-60.7"/>
					</g>
					<path class="st1" d="M100.4-44.8c-2.4-0.3-4.3-1.6-4.1-2.9c0.2-1.3,2.2-2.1,4.7-1.8s4.3,1.6,4.1,2.9
						C104.9-45.3,102.8-44.5,100.4-44.8z"/>
					<path class="st1" d="M88.4-65.6c-1,2.2-0.8,4.5,0.4,5c1.2,0.5,3-0.9,3.9-3.1c1-2.2,0.8-4.5-0.4-5
						C91.1-69.2,89.4-67.8,88.4-65.6z"/>
				</g>
			</g>
			<g>
				<line class="st1" x1="133.5" y1="-0.9" x2="67" y2="-39.3"/>
			</g>
			<g>
				<line class="st1" x1="0.5" y1="-1.2" x2="67" y2="-39.6"/>
			</g>
			<g>
				<line class="st1" x1="0.7" y1="-78" x2="67.2" y2="-39.6"/>
			</g>
			<g>
				<line class="st1" x1="67.3" y1="-116.2" x2="67.3" y2="-39.4"/>
				<g>
					<path class="st1" d="M67.1-116c1.3-2.6,3.3-4.3,5.6-4.3c2.3,0,4.3,1.7,5.6,4.3"/>
					<path class="st1" d="M56-116c1.3-2.6,3.3-4.3,5.6-4.3c2.3,0,4.3,1.7,5.6,4.3"/>
				</g>
				<g>
					<line class="st1" x1="67.2" y1="-101.7" x2="73.4" y2="-108"/>
					<line class="st1" x1="67.1" y1="-101.7" x2="60.8" y2="-108"/>
				</g>
				<g>
					<line class="st1" x1="67.2" y1="-75.1" x2="73.4" y2="-81.3"/>
					<line class="st1" x1="67.1" y1="-75.1" x2="60.8" y2="-81.3"/>
				</g>
				<g>
					<line class="st1" x1="67.2" y1="-48.4" x2="73.4" y2="-54.7"/>
					<line class="st1" x1="67.1" y1="-48.4" x2="60.8" y2="-54.7"/>
				</g>
				<path class="st1" d="M68.9-124.1c0,0.9-0.7,1.6-1.6,1.6s-1.6-0.7-1.6-1.6s0.7-1.6,1.6-1.6S68.9-125,68.9-124.1z"/>
				<g>
					<g>
						<line class="st1" x1="67.2" y1="-88.4" x2="74.5" y2="-95.8"/>
						<line class="st1" x1="67.1" y1="-88.4" x2="59.7" y2="-95.8"/>
					</g>
					<path class="st1" d="M79.1-97.6c-1.5,2-3.5,2.9-4.5,2.1s-0.7-3,0.8-5c1.5-2,3.5-2.9,4.5-2.1C80.9-101.8,80.6-99.6,79.1-97.6z"
						/>
				</g>
				<g>
					<g>
						<line class="st1" x1="67.2" y1="-61.7" x2="74.5" y2="-69.2"/>
						<line class="st1" x1="67.1" y1="-61.7" x2="59.7" y2="-69.2"/>
					</g>
					<path class="st1" d="M79.1-71c-1.5,2-3.5,2.9-4.5,2.1s-0.7-3,0.8-5c1.5-2,3.5-2.9,4.5-2.1C80.9-75.1,80.6-72.9,79.1-71z"/>
				</g>
			</g>
		</g>
		<g>
			<g>
				<line class="st1" x1="143.3" y1="-247.1" x2="143.3" y2="-170.3"/>
				<g>
					<path class="st1" d="M143.2-246.9c1.3-2.6,3.3-4.3,5.6-4.3c2.3,0,4.3,1.7,5.6,4.3"/>
					<path class="st1" d="M132-246.9c1.3-2.6,3.3-4.3,5.6-4.3c2.3,0,4.3,1.7,5.6,4.3"/>
				</g>
				<g>
					<line class="st1" x1="143.2" y1="-232.6" x2="149.4" y2="-238.9"/>
					<line class="st1" x1="143.1" y1="-232.6" x2="136.9" y2="-238.9"/>
				</g>
				<g>
					<line class="st1" x1="143.2" y1="-206" x2="149.4" y2="-212.3"/>
					<line class="st1" x1="143.1" y1="-206" x2="136.9" y2="-212.3"/>
				</g>
				<g>
					<line class="st1" x1="143.2" y1="-179.3" x2="149.4" y2="-185.6"/>
					<line class="st1" x1="143.1" y1="-179.3" x2="136.9" y2="-185.6"/>
				</g>
				<path class="st1" d="M145-255c0,0.9-0.7,1.6-1.6,1.6c-0.9,0-1.6-0.7-1.6-1.6c0-0.9,0.7-1.6,1.6-1.6
					C144.3-256.6,145-255.9,145-255z"/>
				<g>
					<g>
						<line class="st1" x1="143.2" y1="-219.3" x2="150.6" y2="-226.7"/>
						<line class="st1" x1="143.1" y1="-219.3" x2="135.8" y2="-226.7"/>
					</g>
					<path class="st1" d="M155.2-228.5c-1.5,2-3.5,2.9-4.5,2.1c-1-0.8-0.7-3,0.8-5c1.5-2,3.5-2.9,4.5-2.1
						C157-232.7,156.6-230.5,155.2-228.5z"/>
					<path class="st1" d="M131.1-228.5c1.5,2,3.5,2.9,4.5,2.1c1-0.8,0.7-3-0.8-5c-1.5-2-3.5-2.9-4.5-2.1
						C129.3-232.7,129.7-230.5,131.1-228.5z"/>
				</g>
				<g>
					<g>
						<line class="st1" x1="143.2" y1="-192.7" x2="150.6" y2="-200.1"/>
						<line class="st1" x1="143.1" y1="-192.7" x2="135.8" y2="-200.1"/>
					</g>
					<path class="st1" d="M155.2-201.9c-1.5,2-3.5,2.9-4.5,2.1c-1-0.8-0.7-3,0.8-5c1.5-2,3.5-2.9,4.5-2.1
						C157-206.1,156.6-203.8,155.2-201.9z"/>
					<path class="st1" d="M131.1-201.9c1.5,2,3.5,2.9,4.5,2.1c1-0.8,0.7-3-0.8-5c-1.5-2-3.5-2.9-4.5-2.1
						C129.3-206.1,129.7-203.8,131.1-201.9z"/>
				</g>
			</g>
			<g>
				<line class="st1" x1="209.7" y1="-208.6" x2="143.2" y2="-170.2"/>
				<g>
					<path class="st1" d="M209.5-208.6c2.9-0.2,5.4,0.7,6.5,2.7c1.1,2,0.7,4.6-1,7"/>
					<path class="st1" d="M203.9-218.3c2.9-0.2,5.4,0.7,6.5,2.7c1.1,2,0.7,4.6-1,7"/>
				</g>
				<g>
					<line class="st1" x1="197.1" y1="-201.4" x2="205.7" y2="-199.2"/>
					<line class="st1" x1="197.1" y1="-201.5" x2="199.4" y2="-210"/>
				</g>
				<g>
					<line class="st1" x1="174" y1="-188.1" x2="182.6" y2="-185.8"/>
					<line class="st1" x1="174" y1="-188.2" x2="176.3" y2="-196.7"/>
				</g>
				<g>
					<line class="st1" x1="151" y1="-174.8" x2="159.5" y2="-172.5"/>
					<line class="st1" x1="150.9" y1="-174.8" x2="153.3" y2="-183.4"/>
				</g>
				<path class="st1" d="M217.4-211c-0.8,0.4-1.7,0.2-2.2-0.6c-0.4-0.8-0.2-1.7,0.6-2.2c0.8-0.4,1.7-0.2,2.2,0.6
					C218.4-212.5,218.2-211.5,217.4-211z"/>
				<g>
					<g>
						<line class="st1" x1="185.6" y1="-194.7" x2="195.7" y2="-192.1"/>
						<line class="st1" x1="185.5" y1="-194.8" x2="188.3" y2="-204.9"/>
					</g>
					<path class="st1" d="M199.5-189c-2.4-0.3-4.3-1.6-4.1-2.9c0.2-1.3,2.2-2.1,4.7-1.8c2.4,0.3,4.3,1.6,4.1,2.9
						S202-188.7,199.5-189z"/>
					<path class="st1" d="M187.5-209.8c-1,2.2-0.8,4.5,0.4,5c1.2,0.5,3-0.9,3.9-3.1c1-2.2,0.8-4.5-0.4-5S188.5-212.1,187.5-209.8z"
						/>
				</g>
				<g>
					<g>
						<line class="st1" x1="162.5" y1="-181.4" x2="172.6" y2="-178.8"/>
						<line class="st1" x1="162.5" y1="-181.5" x2="165.2" y2="-191.6"/>
					</g>
					<path class="st1" d="M176.5-175.7c-2.4-0.3-4.3-1.6-4.1-2.9s2.2-2.1,4.7-1.8s4.3,1.6,4.1,2.9
						C181-176.2,178.9-175.4,176.5-175.7z"/>
					<path class="st1" d="M164.5-196.5c-1,2.2-0.8,4.5,0.4,5s3-0.9,3.9-3.1c1-2.2,0.8-4.5-0.4-5
						C167.2-200.2,165.4-198.7,164.5-196.5z"/>
				</g>
			</g>
			<g>
				<line class="st1" x1="209.5" y1="-131.8" x2="143.1" y2="-170.2"/>
				<g>
					<path class="st1" d="M209.5-132c1.6,2.4,2.1,5,1,7c-1.1,2-3.6,2.9-6.6,2.7"/>
					<path class="st1" d="M215.1-141.6c1.6,2.4,2.1,5,1,7c-1.1,2-3.6,2.9-6.6,2.7"/>
				</g>
				<g>
					<line class="st1" x1="197" y1="-139.1" x2="199.4" y2="-130.6"/>
					<line class="st1" x1="197.1" y1="-139.2" x2="205.6" y2="-141.4"/>
				</g>
				<g>
					<line class="st1" x1="174" y1="-152.4" x2="176.3" y2="-143.9"/>
					<line class="st1" x1="174" y1="-152.5" x2="182.6" y2="-154.8"/>
				</g>
				<g>
					<line class="st1" x1="150.9" y1="-165.8" x2="153.3" y2="-157.2"/>
					<line class="st1" x1="151" y1="-165.8" x2="159.5" y2="-168.1"/>
				</g>
				<path class="st1" d="M215.5-126.4c-0.8-0.4-1-1.4-0.6-2.2c0.4-0.8,1.4-1,2.2-0.6c0.8,0.4,1,1.4,0.6,2.2
					C217.3-126.2,216.3-125.9,215.5-126.4z"/>
				<g>
					<g>
						<line class="st1" x1="185.5" y1="-145.8" x2="188.3" y2="-135.7"/>
						<line class="st1" x1="185.6" y1="-145.9" x2="195.7" y2="-148.5"/>
					</g>
					<path class="st1" d="M187.5-130.8c-1-2.2-0.8-4.5,0.4-5c1.2-0.5,3,0.9,3.9,3.1c1,2.2,0.8,4.5-0.4,5
						C190.2-127.2,188.5-128.6,187.5-130.8z"/>
					<path class="st1" d="M199.5-151.6c-2.4,0.3-4.3,1.6-4.1,2.9c0.2,1.3,2.2,2.1,4.7,1.8c2.4-0.3,4.3-1.6,4.1-2.9
						S202-151.9,199.5-151.6z"/>
				</g>
				<g>
					<g>
						<line class="st1" x1="162.5" y1="-159.1" x2="165.2" y2="-149"/>
						<line class="st1" x1="162.5" y1="-159.2" x2="172.6" y2="-161.8"/>
					</g>
					<path class="st1" d="M164.5-144.1c-1-2.2-0.8-4.5,0.4-5s3,0.9,3.9,3.1c1,2.2,0.8,4.5-0.4,5
						C167.2-140.5,165.4-141.9,164.5-144.1z"/>
					<path class="st1" d="M176.5-164.9c-2.4,0.3-4.3,1.6-4.1,2.9s2.2,2.1,4.7,1.8s4.3-1.6,4.1-2.9
						C181-164.4,178.9-165.2,176.5-164.9z"/>
				</g>
			</g>
			<g>
				<line class="st1" x1="143" y1="-93.5" x2="143" y2="-170.3"/>
				<g>
					<path class="st1" d="M143.1-93.7c-1.3,2.6-3.3,4.3-5.6,4.3c-2.3,0-4.3-1.7-5.6-4.3"/>
					<path class="st1" d="M154.3-93.7c-1.3,2.6-3.3,4.3-5.6,4.3c-2.3,0-4.3-1.7-5.6-4.3"/>
				</g>
				<g>
					<line class="st1" x1="143.1" y1="-108" x2="136.9" y2="-101.8"/>
					<line class="st1" x1="143.2" y1="-108" x2="149.4" y2="-101.8"/>
				</g>
				<g>
					<line class="st1" x1="143.1" y1="-134.7" x2="136.9" y2="-128.4"/>
					<line class="st1" x1="143.2" y1="-134.7" x2="149.4" y2="-128.4"/>
				</g>
				<g>
					<line class="st1" x1="143.1" y1="-161.3" x2="136.9" y2="-155"/>
					<line class="st1" x1="143.2" y1="-161.3" x2="149.4" y2="-155"/>
				</g>
				<path class="st1" d="M141.3-85.6c0-0.9,0.7-1.6,1.6-1.6c0.9,0,1.6,0.7,1.6,1.6s-0.7,1.6-1.6,1.6C142-84,141.3-84.8,141.3-85.6z"
					/>
				<g>
					<g>
						<line class="st1" x1="143.1" y1="-121.4" x2="135.7" y2="-113.9"/>
						<line class="st1" x1="143.2" y1="-121.4" x2="150.5" y2="-113.9"/>
					</g>
					<path class="st1" d="M131.1-112.1c1.5-2,3.5-2.9,4.5-2.1c1,0.8,0.7,3-0.8,5c-1.5,2-3.5,2.9-4.5,2.1S129.7-110.2,131.1-112.1z"
						/>
					<path class="st1" d="M155.2-112.1c-1.5-2-3.5-2.9-4.5-2.1c-1,0.8-0.7,3,0.8,5c1.5,2,3.5,2.9,4.5,2.1S156.6-110.2,155.2-112.1z"
						/>
				</g>
				<g>
					<g>
						<line class="st1" x1="143.1" y1="-148" x2="135.7" y2="-140.5"/>
						<line class="st1" x1="143.2" y1="-148" x2="150.5" y2="-140.5"/>
					</g>
					<path class="st1" d="M131.1-138.8c1.5-2,3.5-2.9,4.5-2.1c1,0.8,0.7,3-0.8,5c-1.5,2-3.5,2.9-4.5,2.1
						C129.3-134.6,129.7-136.8,131.1-138.8z"/>
					<path class="st1" d="M155.2-138.8c-1.5-2-3.5-2.9-4.5-2.1c-1,0.8-0.7,3,0.8,5c1.5,2,3.5,2.9,4.5,2.1
						C157-134.6,156.6-136.8,155.2-138.8z"/>
				</g>
			</g>
			<g>
				<line class="st1" x1="76.6" y1="-132.1" x2="143.1" y2="-170.5"/>
				<g>
					<path class="st1" d="M76.8-132c-2.9,0.2-5.4-0.7-6.5-2.7c-1.1-2-0.7-4.6,1-7"/>
					<path class="st1" d="M82.4-122.4c-2.9,0.2-5.4-0.7-6.5-2.7c-1.1-2-0.7-4.6,1-7"/>
				</g>
				<g>
					<line class="st1" x1="89.2" y1="-139.2" x2="80.6" y2="-141.5"/>
					<line class="st1" x1="89.2" y1="-139.2" x2="86.9" y2="-130.6"/>
				</g>
				<g>
					<line class="st1" x1="112.2" y1="-152.6" x2="103.7" y2="-154.8"/>
					<line class="st1" x1="112.3" y1="-152.5" x2="110" y2="-143.9"/>
				</g>
				<g>
					<line class="st1" x1="135.3" y1="-165.9" x2="126.7" y2="-168.1"/>
					<line class="st1" x1="135.3" y1="-165.8" x2="133" y2="-157.3"/>
				</g>
				<path class="st1" d="M68.9-129.6c0.8-0.4,1.7-0.2,2.2,0.6c0.4,0.8,0.2,1.7-0.6,2.2c-0.8,0.4-1.7,0.2-2.2-0.6
					C67.9-128.2,68.1-129.2,68.9-129.6z"/>
				<g>
					<g>
						<line class="st1" x1="100.7" y1="-145.9" x2="90.6" y2="-148.6"/>
						<line class="st1" x1="100.8" y1="-145.8" x2="98" y2="-135.7"/>
					</g>
					<path class="st1" d="M86.7-151.6c2.4,0.3,4.3,1.6,4.1,2.9c-0.2,1.3-2.2,2.1-4.7,1.8s-4.3-1.6-4.1-2.9
						C82.2-151.1,84.3-151.9,86.7-151.6z"/>
					<path class="st1" d="M98.8-130.8c1-2.2,0.8-4.5-0.4-5c-1.2-0.5-3,0.9-3.9,3.1c-1,2.2-0.8,4.5,0.4,5
						C96-127.2,97.8-128.6,98.8-130.8z"/>
				</g>
				<g>
					<g>
						<line class="st1" x1="123.8" y1="-159.2" x2="113.6" y2="-161.9"/>
						<line class="st1" x1="123.8" y1="-159.1" x2="121.1" y2="-149"/>
					</g>
					<path class="st1" d="M109.8-164.9c2.4,0.3,4.3,1.6,4.1,2.9s-2.2,2.1-4.7,1.8c-2.4-0.3-4.3-1.6-4.1-2.9
						C105.3-164.4,107.4-165.2,109.8-164.9z"/>
					<path class="st1" d="M121.8-144.1c1-2.2,0.8-4.5-0.4-5c-1.2-0.5-3,0.9-3.9,3.1c-1,2.2-0.8,4.5,0.4,5
						C119.1-140.5,120.9-141.9,121.8-144.1z"/>
				</g>
			</g>
			<g>
				<line class="st1" x1="76.7" y1="-208.9" x2="143.2" y2="-170.5"/>
				<g>
					<path class="st1" d="M76.8-208.6c-1.6-2.4-2.1-5-1-7c1.1-2,3.6-2.9,6.6-2.7"/>
					<path class="st1" d="M71.2-199c-1.6-2.4-2.1-5-1-7c1.1-2,3.6-2.9,6.6-2.7"/>
				</g>
				<g>
					<line class="st1" x1="89.2" y1="-201.5" x2="86.9" y2="-210"/>
					<line class="st1" x1="89.2" y1="-201.4" x2="80.7" y2="-199.2"/>
				</g>
				<g>
					<line class="st1" x1="112.3" y1="-188.2" x2="110" y2="-196.7"/>
					<line class="st1" x1="112.3" y1="-188.1" x2="103.7" y2="-185.9"/>
				</g>
				<g>
					<line class="st1" x1="135.4" y1="-174.9" x2="133" y2="-183.4"/>
					<line class="st1" x1="135.3" y1="-174.8" x2="126.8" y2="-172.6"/>
				</g>
				<path class="st1" d="M70.7-214.3c0.8,0.4,1,1.4,0.6,2.2c-0.4,0.8-1.4,1-2.2,0.6c-0.8-0.4-1-1.4-0.6-2.2
					C69-214.5,70-214.7,70.7-214.3z"/>
				<g>
					<g>
						<line class="st1" x1="100.8" y1="-194.9" x2="98" y2="-205"/>
						<line class="st1" x1="100.7" y1="-194.8" x2="90.6" y2="-192.1"/>
					</g>
					<path class="st1" d="M98.8-209.8c1,2.2,0.8,4.5-0.4,5c-1.2,0.5-3-0.9-3.9-3.1c-1-2.2-0.8-4.5,0.4-5
						C96-213.5,97.8-212.1,98.8-209.8z"/>
					<path class="st1" d="M86.7-189c2.4-0.3,4.3-1.6,4.1-2.9c-0.2-1.3-2.2-2.1-4.7-1.8s-4.3,1.6-4.1,2.9
						C82.2-189.5,84.3-188.7,86.7-189z"/>
				</g>
				<g>
					<g>
						<line class="st1" x1="123.8" y1="-181.5" x2="121.1" y2="-191.6"/>
						<line class="st1" x1="123.8" y1="-181.5" x2="113.7" y2="-178.8"/>
					</g>
					<path class="st1" d="M121.8-196.5c1,2.2,0.8,4.5-0.4,5c-1.2,0.5-3-0.9-3.9-3.1c-1-2.2-0.8-4.5,0.4-5
						C119.1-200.2,120.9-198.7,121.8-196.5z"/>
					<path class="st1" d="M109.8-175.7c2.4-0.3,4.3-1.6,4.1-2.9s-2.2-2.1-4.7-1.8c-2.4,0.3-4.3,1.6-4.1,2.9
						C105.3-176.2,107.4-175.4,109.8-175.7z"/>
				</g>
			</g>
			<g>
				<line class="st1" x1="143.3" y1="-247.1" x2="143.3" y2="-170.3"/>
				<g>
					<path class="st1" d="M143.2-246.9c1.3-2.6,3.3-4.3,5.6-4.3c2.3,0,4.3,1.7,5.6,4.3"/>
					<path class="st1" d="M132-246.9c1.3-2.6,3.3-4.3,5.6-4.3c2.3,0,4.3,1.7,5.6,4.3"/>
				</g>
				<g>
					<line class="st1" x1="143.2" y1="-232.6" x2="149.4" y2="-238.9"/>
					<line class="st1" x1="143.1" y1="-232.6" x2="136.9" y2="-238.9"/>
				</g>
				<g>
					<line class="st1" x1="143.2" y1="-206" x2="149.4" y2="-212.3"/>
					<line class="st1" x1="143.1" y1="-206" x2="136.9" y2="-212.3"/>
				</g>
				<g>
					<line class="st1" x1="143.2" y1="-179.3" x2="149.4" y2="-185.6"/>
					<line class="st1" x1="143.1" y1="-179.3" x2="136.9" y2="-185.6"/>
				</g>
				<path class="st1" d="M145-255c0,0.9-0.7,1.6-1.6,1.6c-0.9,0-1.6-0.7-1.6-1.6c0-0.9,0.7-1.6,1.6-1.6
					C144.3-256.6,145-255.9,145-255z"/>
				<g>
					<g>
						<line class="st1" x1="143.2" y1="-219.3" x2="150.6" y2="-226.7"/>
						<line class="st1" x1="143.1" y1="-219.3" x2="135.8" y2="-226.7"/>
					</g>
					<path class="st1" d="M155.2-228.5c-1.5,2-3.5,2.9-4.5,2.1c-1-0.8-0.7-3,0.8-5c1.5-2,3.5-2.9,4.5-2.1
						C157-232.7,156.6-230.5,155.2-228.5z"/>
					<path class="st1" d="M131.1-228.5c1.5,2,3.5,2.9,4.5,2.1c1-0.8,0.7-3-0.8-5c-1.5-2-3.5-2.9-4.5-2.1
						C129.3-232.7,129.7-230.5,131.1-228.5z"/>
				</g>
				<g>
					<g>
						<line class="st1" x1="143.2" y1="-192.7" x2="150.6" y2="-200.1"/>
						<line class="st1" x1="143.1" y1="-192.7" x2="135.8" y2="-200.1"/>
					</g>
					<path class="st1" d="M155.2-201.9c-1.5,2-3.5,2.9-4.5,2.1c-1-0.8-0.7-3,0.8-5c1.5-2,3.5-2.9,4.5-2.1
						C157-206.1,156.6-203.8,155.2-201.9z"/>
					<path class="st1" d="M131.1-201.9c1.5,2,3.5,2.9,4.5,2.1c1-0.8,0.7-3-0.8-5c-1.5-2-3.5-2.9-4.5-2.1
						C129.3-206.1,129.7-203.8,131.1-201.9z"/>
				</g>
			</g>
		</g>
		<g>
			<g>
				<line class="st1" x1="285.8" y1="-339.5" x2="219.3" y2="-301.1"/>
			</g>
			<g>
				<line class="st1" x1="285.6" y1="-262.7" x2="219.1" y2="-301.1"/>
			</g>
			<g>
				<line class="st1" x1="219" y1="-224.4" x2="219" y2="-301.2"/>
				<g>
					<path class="st1" d="M219.2-224.6c-1.3,2.6-3.3,4.3-5.6,4.3c-2.3,0-4.3-1.7-5.6-4.3"/>
					<path class="st1" d="M230.3-224.6c-1.3,2.6-3.3,4.3-5.6,4.3c-2.3,0-4.3-1.7-5.6-4.3"/>
				</g>
				<g>
					<line class="st1" x1="219.1" y1="-239" x2="212.9" y2="-232.7"/>
					<line class="st1" x1="219.2" y1="-239" x2="225.4" y2="-232.7"/>
				</g>
				<g>
					<line class="st1" x1="219.1" y1="-265.6" x2="212.9" y2="-259.3"/>
					<line class="st1" x1="219.2" y1="-265.6" x2="225.4" y2="-259.3"/>
				</g>
				<g>
					<line class="st1" x1="219.1" y1="-292.2" x2="212.9" y2="-285.9"/>
					<line class="st1" x1="219.2" y1="-292.2" x2="225.4" y2="-285.9"/>
				</g>
				<path class="st1" d="M217.3-216.6c0-0.9,0.7-1.6,1.6-1.6c0.9,0,1.6,0.7,1.6,1.6c0,0.9-0.7,1.6-1.6,1.6
					C218.1-215,217.3-215.7,217.3-216.6z"/>
				<g>
					<g>
						<line class="st1" x1="219.1" y1="-252.3" x2="211.8" y2="-244.8"/>
						<line class="st1" x1="219.2" y1="-252.3" x2="226.6" y2="-244.8"/>
					</g>
					<path class="st1" d="M207.2-243c1.5-2,3.5-2.9,4.5-2.1c1,0.8,0.7,3-0.8,5c-1.5,2-3.5,2.9-4.5,2.1
						C205.4-238.9,205.7-241.1,207.2-243z"/>
				</g>
				<g>
					<g>
						<line class="st1" x1="219.1" y1="-278.9" x2="211.8" y2="-271.5"/>
						<line class="st1" x1="219.2" y1="-278.9" x2="226.6" y2="-271.5"/>
					</g>
					<path class="st1" d="M207.2-269.7c1.5-2,3.5-2.9,4.5-2.1c1,0.8,0.7,3-0.8,5c-1.5,2-3.5,2.9-4.5,2.1
						C205.4-265.5,205.7-267.7,207.2-269.7z"/>
				</g>
			</g>
			<g>
				<line class="st1" x1="152.6" y1="-263" x2="219.1" y2="-301.4"/>
				<g>
					<path class="st1" d="M152.8-262.9c-2.9,0.2-5.4-0.7-6.5-2.7c-1.1-2-0.7-4.6,1-7"/>
					<path class="st1" d="M158.4-253.3c-2.9,0.2-5.4-0.7-6.5-2.7c-1.1-2-0.7-4.6,1-7"/>
				</g>
				<g>
					<line class="st1" x1="165.2" y1="-270.1" x2="156.7" y2="-272.4"/>
					<line class="st1" x1="165.3" y1="-270.1" x2="163" y2="-261.5"/>
				</g>
				<g>
					<line class="st1" x1="188.3" y1="-283.5" x2="179.7" y2="-285.7"/>
					<line class="st1" x1="188.3" y1="-283.4" x2="186" y2="-274.9"/>
				</g>
				<g>
					<line class="st1" x1="211.4" y1="-296.8" x2="202.8" y2="-299"/>
					<line class="st1" x1="211.4" y1="-296.7" x2="209.1" y2="-288.2"/>
				</g>
				<path class="st1" d="M144.9-260.5c0.8-0.4,1.7-0.2,2.2,0.6s0.2,1.7-0.6,2.2s-1.7,0.2-2.2-0.6S144.2-260.1,144.9-260.5z"/>
				<g>
					<g>
						<line class="st1" x1="176.8" y1="-276.8" x2="166.6" y2="-279.5"/>
						<line class="st1" x1="176.8" y1="-276.7" x2="174.1" y2="-266.6"/>
					</g>
					<path class="st1" d="M162.8-282.5c2.4,0.3,4.3,1.6,4.1,2.9s-2.2,2.1-4.7,1.8c-2.4-0.3-4.3-1.6-4.1-2.9
						C158.3-282,160.4-282.8,162.8-282.5z"/>
					<path class="st1" d="M174.8-261.7c1-2.2,0.8-4.5-0.4-5c-1.2-0.5-3,0.9-3.9,3.1s-0.8,4.5,0.4,5S173.9-259.5,174.8-261.7z"/>
				</g>
				<g>
					<g>
						<line class="st1" x1="199.8" y1="-290.1" x2="189.7" y2="-292.8"/>
						<line class="st1" x1="199.9" y1="-290" x2="197.1" y2="-279.9"/>
					</g>
					<path class="st1" d="M185.9-295.8c2.4,0.3,4.3,1.6,4.1,2.9c-0.2,1.3-2.2,2.1-4.7,1.8s-4.3-1.6-4.1-2.9S183.4-296.1,185.9-295.8
						z"/>
					<path class="st1" d="M197.9-275c1-2.2,0.8-4.5-0.4-5c-1.2-0.5-3,0.9-3.9,3.1s-0.8,4.5,0.4,5C195.2-271.4,196.9-272.8,197.9-275
						z"/>
				</g>
			</g>
			<g>
				<line class="st1" x1="152.8" y1="-339.8" x2="219.3" y2="-301.4"/>
			</g>
		</g>
		<g>
			<g>
				<line class="st1" x1="133.7" y1="-339.5" x2="67.2" y2="-301.1"/>
			</g>
			<g>
				<line class="st1" x1="133.5" y1="-262.7" x2="67" y2="-301.1"/>
				<g>
					<path class="st1" d="M133.4-262.9c1.6,2.4,2.1,5,1,7c-1.1,2-3.6,2.9-6.6,2.7"/>
					<path class="st1" d="M139-272.6c1.6,2.4,2.1,5,1,7c-1.1,2-3.6,2.9-6.6,2.7"/>
				</g>
				<g>
					<line class="st1" x1="121" y1="-270" x2="123.3" y2="-261.5"/>
					<line class="st1" x1="121" y1="-270.1" x2="129.6" y2="-272.4"/>
				</g>
				<g>
					<line class="st1" x1="97.9" y1="-283.3" x2="100.3" y2="-274.8"/>
					<line class="st1" x1="98" y1="-283.4" x2="106.5" y2="-285.7"/>
				</g>
				<g>
					<line class="st1" x1="74.9" y1="-296.7" x2="77.2" y2="-288.1"/>
					<line class="st1" x1="74.9" y1="-296.7" x2="83.5" y2="-299"/>
				</g>
				<path class="st1" d="M139.5-257.3c-0.8-0.4-1-1.4-0.6-2.2c0.4-0.8,1.4-1,2.2-0.6c0.8,0.4,1,1.4,0.6,2.2
					C141.2-257.1,140.2-256.8,139.5-257.3z"/>
				<g>
					<g>
						<line class="st1" x1="109.5" y1="-276.7" x2="112.2" y2="-266.6"/>
						<line class="st1" x1="109.5" y1="-276.8" x2="119.6" y2="-279.4"/>
					</g>
					<path class="st1" d="M111.5-261.7c-1-2.2-0.8-4.5,0.4-5c1.2-0.5,3,0.9,3.9,3.1c1,2.2,0.8,4.5-0.4,5
						C114.2-258.1,112.4-259.5,111.5-261.7z"/>
					<path class="st1" d="M123.5-282.5c-2.4,0.3-4.3,1.6-4.1,2.9c0.2,1.3,2.2,2.1,4.7,1.8c2.4-0.3,4.3-1.6,4.1-2.9
						C128-282,125.9-282.8,123.5-282.5z"/>
				</g>
				<g>
					<g>
						<line class="st1" x1="86.4" y1="-290" x2="89.2" y2="-279.9"/>
						<line class="st1" x1="86.4" y1="-290.1" x2="96.6" y2="-292.7"/>
					</g>
					<path class="st1" d="M88.4-275c-1-2.2-0.8-4.5,0.4-5c1.2-0.5,3,0.9,3.9,3.1c1,2.2,0.8,4.5-0.4,5
						C91.1-271.4,89.4-272.8,88.4-275z"/>
					<path class="st1" d="M100.4-295.8c-2.4,0.3-4.3,1.6-4.1,2.9c0.2,1.3,2.2,2.1,4.7,1.8s4.3-1.6,4.1-2.9S102.8-296.1,100.4-295.8z
						"/>
				</g>
			</g>
			<g>
				<line class="st1" x1="66.9" y1="-224.4" x2="66.9" y2="-301.2"/>
				<g>
					<path class="st1" d="M67.1-224.6c-1.3,2.6-3.3,4.3-5.6,4.3c-2.3,0-4.3-1.7-5.6-4.3"/>
					<path class="st1" d="M78.2-224.6c-1.3,2.6-3.3,4.3-5.6,4.3c-2.3,0-4.3-1.7-5.6-4.3"/>
				</g>
				<g>
					<line class="st1" x1="67" y1="-239" x2="60.8" y2="-232.7"/>
					<line class="st1" x1="67.1" y1="-239" x2="73.3" y2="-232.7"/>
				</g>
				<g>
					<line class="st1" x1="67" y1="-265.6" x2="60.8" y2="-259.3"/>
					<line class="st1" x1="67.1" y1="-265.6" x2="73.3" y2="-259.3"/>
				</g>
				<g>
					<line class="st1" x1="67" y1="-292.2" x2="60.8" y2="-285.9"/>
					<line class="st1" x1="67.1" y1="-292.2" x2="73.3" y2="-285.9"/>
				</g>
				<path class="st1" d="M65.2-216.6c0-0.9,0.7-1.6,1.6-1.6s1.6,0.7,1.6,1.6c0,0.9-0.7,1.6-1.6,1.6S65.2-215.7,65.2-216.6z"/>
				<g>
					<g>
						<line class="st1" x1="67" y1="-252.3" x2="59.6" y2="-244.8"/>
						<line class="st1" x1="67.1" y1="-252.3" x2="74.5" y2="-244.8"/>
					</g>
					<path class="st1" d="M79.1-243c-1.5-2-3.5-2.9-4.5-2.1c-1,0.8-0.7,3,0.8,5s3.5,2.9,4.5,2.1C80.9-238.9,80.6-241.1,79.1-243z"/>
				</g>
				<g>
					<g>
						<line class="st1" x1="67" y1="-278.9" x2="59.6" y2="-271.5"/>
						<line class="st1" x1="67.1" y1="-278.9" x2="74.5" y2="-271.5"/>
					</g>
					<path class="st1" d="M79.1-269.7c-1.5-2-3.5-2.9-4.5-2.1s-0.7,3,0.8,5c1.5,2,3.5,2.9,4.5,2.1C80.9-265.5,80.6-267.7,79.1-269.7
						z"/>
				</g>
			</g>
			<g>
				<line class="st1" x1="0.5" y1="-263" x2="67" y2="-301.4"/>
			</g>
			<g>
				<line class="st1" x1="0.7" y1="-339.8" x2="67.2" y2="-301.4"/>
			</g>
		</g>
	</g>
</pattern>
<rect class="st2" width="288" height="216"/>
<rect class="st3" width="288" height="216"/>
</svg>
