<?xml version="1.0" encoding="utf-8"?>
<!-- Generator: Adobe Illustrator 19.0.1, SVG Export Plug-In . SVG Version: 6.00 Build 0)  -->
<svg version="1.1" id="Слой_1" xmlns="http://www.w3.org/2000/svg" xmlns:xlink="http://www.w3.org/1999/xlink" x="0px" y="0px"
	 viewBox="0 0 594.2 143.2" style="enable-background:new 0 0 594.2 143.2;" xml:space="preserve">
<style type="text/css">
	.st0{fill:none;stroke:#83919E;stroke-width:3;stroke-miterlimit:10;}
	.st1{fill:none;stroke:#83919E;stroke-width:3;stroke-linecap:round;stroke-miterlimit:10;}
	.st2{fill:none;stroke:#83919E;stroke-linecap:round;stroke-miterlimit:10;}
	.st3{fill:none;stroke:#83919E;stroke-width:3;stroke-linecap:round;stroke-linejoin:round;stroke-dasharray:10,10;}
	.st4{fill:#83919E;}
</style>
<g>
	<g>
		<path class="st0" d="M74.5,116.6c-6.1,8.4-22.8,7.9-29.1,0c-5.6-7.2-8.5-11.6-8.5-16.2v-19c0-4.7,3.3-9.6,8.2-10.7
			c7.1-1.7,22.1-1.9,29.1,0c4.8,1.3,8.2,6.1,8.2,10.7v19C82.3,105.1,79.6,109.6,74.5,116.6z"/>
		<path class="st0" d="M37,81.2c-7.3,0.5-17.5,4.6-21.3,11.5c-0.2,0.3-0.4,0.7-0.5,1.1c-1.1,2.7-1.2,6.3-0.3,8.9
			c1.1,3,2.9,5.8,4.5,8.6c0.1,0.2,0.2,0.3,0.3,0.5c1.1,2,2.4,4,3.4,6c0.6,1.3,1.2,2.5,2.3,3.5c1.9,1.8,4.6,2.3,7.1,2.3
			c5.5-0.1,10.7-2.4,15.7-4.3"/>
		<path class="st0" d="M82.7,81.2c7.3,0.5,17.5,4.6,21.3,11.5c0.2,0.3,0.4,0.7,0.5,1.1c1.1,2.7,1.2,6.3,0.3,8.9
			c-1.1,3-2.9,5.8-4.5,8.6c-0.1,0.2-0.2,0.3-0.3,0.5c-1.1,2-2.4,4-3.4,6c-0.6,1.3-1.2,2.5-2.3,3.5c-1.9,1.8-4.6,2.3-7.1,2.3
			c-5.5-0.1-10.7-2.4-15.7-4.3"/>
		<path class="st0" d="M81.5,77.2"/>
		<path class="st0" d="M29.8,123.6c-2.5,1.8-6,3.8-8.6,5.4c-2.1,1.3-4.8,2-7.3,1.5c-3.1-0.6-4.8-3.1-6.6-5.4
			c-1.9-2.4-4.1-5.3-4.2-8.7c-0.1-3.3,1.7-6.7,3.9-8.9c2.3-2.3,5.1-4.3,7.6-6.4"/>
		<path class="st0" d="M89.9,123.4c2.5,1.8,6.4,4,9,5.6c2.1,1.3,4.8,2,7.3,1.5c3.1-0.6,4.8-3.1,6.6-5.4c1.9-2.4,4.1-5.3,4.2-8.7
			c0.1-3.3-1.7-6.7-3.9-8.9c-2.3-2.3-5.4-4.5-7.9-6.6"/>
		<path class="st0" d="M18.2,130.3l-1.3,4.4c-1.2,4.1-5.5,6.4-9.4,5.1c-6.2-2-7.4-10.3-4.3-15.6c0.5-0.9,1.1-1.7,1.8-2.4"/>
		<path class="st0" d="M101.9,130.3l1.3,4.4c1.2,4.1,5.5,6.4,9.4,5.1c6.2-2,7.4-10.3,4.3-15.6c-0.5-0.9-1.1-1.7-1.8-2.4"/>
	</g>
	<path class="st1" d="M61.5,71.9"/>
	<path class="st1" d="M114.8,86.3"/>
	<g>
		<line class="st1" x1="148.8" y1="23" x2="118.8" y2="53.2"/>
		<circle class="st1" cx="150.6" cy="21" r="2.7"/>
		<line class="st1" x1="135.1" y1="36.8" x2="152.1" y2="34.3"/>
		<line class="st1" x1="135" y1="37.1" x2="137.2" y2="19.6"/>
		<line class="st1" x1="164.6" y1="61.6" x2="122.5" y2="61.8"/>
		<circle class="st1" cx="167.4" cy="61.4" r="2.7"/>
		<line class="st1" x1="145.5" y1="62" x2="159" y2="71.8"/>
		<line class="st1" x1="144.9" y1="61.8" x2="158.9" y2="51"/>
		<line class="st1" x1="148.6" y1="100" x2="118.5" y2="70.2"/>
		<circle class="st1" cx="150.6" cy="101.9" r="2.7"/>
		<line class="st1" x1="134.3" y1="85.9" x2="137.3" y2="103.3"/>
		<line class="st1" x1="134.5" y1="86.2" x2="152" y2="88.5"/>
		<line class="st1" x1="110" y1="104.7" x2="109.9" y2="73.6"/>
		<line class="st1" x1="109.9" y1="96.1" x2="105.7" y2="101.9"/>
		<line class="st1" x1="109.9" y1="96.1" x2="120.6" y2="110.1"/>
		<line class="st1" x1="89" y1="82.3" x2="101.2" y2="70"/>
		<line class="st1" x1="55.7" y1="61.3" x2="98.4" y2="61.1"/>
		<circle class="st1" cx="53" cy="61.4" r="2.7"/>
		<line class="st1" x1="75.5" y1="61.1" x2="61.4" y2="51"/>
		<line class="st1" x1="75.5" y1="61.1" x2="64.9" y2="69.2"/>
		<line class="st1" x1="71.8" y1="22.8" x2="101.7" y2="52.5"/>
		<circle class="st1" cx="69.7" cy="21" r="2.7"/>
		<line class="st1" x1="85.9" y1="36.7" x2="83" y2="19.5"/>
		<line class="st1" x1="85.9" y1="36.7" x2="68.4" y2="34.4"/>
		<line class="st1" x1="110.3" y1="7" x2="110.5" y2="49.9"/>
		<circle class="st1" cx="110.2" cy="4.2" r="2.7"/>
		<line class="st1" x1="110.2" y1="26.9" x2="120.6" y2="12.6"/>
		<line class="st1" x1="110.5" y1="26.7" x2="99.8" y2="12.7"/>
		<circle class="st1" cx="110.2" cy="61.8" r="11.8"/>
		<path class="st1" d="M88.3,48.2c4.5-7.2,12.4-12,21.5-12c9.7,0,18.1,5.4,22.3,13.4"/>
		<path class="st1" d="M114.8,86.3c-1.6,0.3-3.2,0.5-4.9,0.5c-14,0-25.3-11.3-25.3-25.3c0-3.6,0.7-6.9,2.1-10"/>
		<path class="st1" d="M134,54.1c0.7,2.3,1.1,4.8,1.1,7.4c0,10.1-5.9,18.8-14.5,22.9"/>
	</g>
</g>
<g>
	<g>
		<path class="st0" d="M326.5,117c-6.1,8.4-22.8,7.9-29.1,0c-5.6-7.2-8.5-11.6-8.5-16.2v-19c0-4.7,3.3-9.6,8.2-10.7
			c7.1-1.7,22.1-1.9,29.1,0c4.8,1.3,8.2,6.1,8.2,10.7v19C334.4,105.4,331.7,109.9,326.5,117z"/>
		<path class="st0" d="M289.1,81.5c-7.3,0.5-17.5,4.6-21.3,11.5c-0.2,0.3-0.4,0.7-0.5,1.1c-1.1,2.7-1.2,6.3-0.3,8.9
			c1.1,3,2.9,5.8,4.5,8.6c0.1,0.2,0.2,0.3,0.3,0.5c1.1,2,2.4,4,3.4,6c0.6,1.3,1.2,2.5,2.3,3.5c1.9,1.8,4.6,2.3,7.1,2.3
			c5.5-0.1,10.7-2.4,15.7-4.3"/>
		<path class="st0" d="M334.8,81.5c7.3,0.5,17.5,4.6,21.3,11.5c0.2,0.3,0.4,0.7,0.5,1.1c1.1,2.7,1.2,6.3,0.3,8.9
			c-1.1,3-2.9,5.8-4.5,8.6c-0.1,0.2-0.2,0.3-0.3,0.5c-1.1,2-2.4,4-3.4,6c-0.6,1.3-1.2,2.5-2.3,3.5c-1.9,1.8-4.6,2.3-7.1,2.3
			c-5.5-0.1-10.7-2.4-15.7-4.3"/>
		<path class="st0" d="M333.5,77.6"/>
		<path class="st0" d="M281.9,124c-2.5,1.8-6,3.8-8.6,5.4c-2.1,1.3-4.8,2-7.3,1.5c-3.1-0.6-4.8-3.1-6.6-5.4
			c-1.9-2.4-4.1-5.3-4.2-8.7c-0.1-3.3,1.7-6.7,3.9-8.9c2.3-2.3,5.1-4.3,7.6-6.4"/>
		<path class="st0" d="M341.9,123.8c2.5,1.8,6.4,4,9,5.6c2.1,1.3,4.8,2,7.3,1.5c3.1-0.6,4.8-3.1,6.6-5.4c1.9-2.4,4.1-5.3,4.2-8.7
			c0.1-3.3-1.7-6.7-3.9-8.9c-2.3-2.3-5.4-4.5-7.9-6.6"/>
		<path class="st0" d="M270.3,130.6l-1.3,4.4c-1.2,4.1-5.5,6.4-9.4,5.1c-6.2-2-7.4-10.3-4.3-15.6c0.5-0.9,1.1-1.7,1.8-2.4"/>
		<path class="st0" d="M354,130.6l1.3,4.4c1.2,4.1,5.5,6.4,9.4,5.1c6.2-2,7.4-10.3,4.3-15.6c-0.5-0.9-1.1-1.7-1.8-2.4"/>
	</g>
	<path class="st1" d="M296.4,61.5c0,0-7.9-3,0-13.1c5.5-7,2-11.4-2.4-13.1"/>
	<path class="st1" d="M312.4,61.5c0,0-7.9-3,0-13.1c5.5-7,2-11.4-2.4-13.1"/>
	<path class="st1" d="M328.4,61.5c0,0-7.9-3,0-13.1c5.5-7,2-11.4-2.4-13.1"/>
	<circle class="st2" cx="302" cy="82.5" r="1.7"/>
	<circle class="st2" cx="317.2" cy="84.7" r="0.5"/>
	<circle class="st2" cx="310.3" cy="96.4" r="1.4"/>
	<circle class="st2" cx="345.4" cy="93.3" r="1.3"/>
	<circle class="st2" cx="349.5" cy="102.2" r="0.7"/>
	<circle class="st2" cx="280.8" cy="93.1" r="1.1"/>
	<circle class="st2" cx="262.8" cy="111.6" r="0.9"/>
	<ellipse class="st2" cx="268.5" cy="114.5" rx="0" ry="0.2"/>
	<circle class="st2" cx="361.4" cy="112.5" r="0.8"/>
</g>
<g>
	<circle class="st1" cx="537.5" cy="86.5" r="55.2"/>
	<circle class="st1" cx="537.7" cy="86.2" r="48.2"/>
	<g>
		<path class="st1" d="M517.2,98.5v13.6c0,1.2-1.3,2.2-2.5,2.2c-1.2,0-2.5-1-2.5-2.2V98.5 M516.9,98.4L516.9,98.4 M517.4,93.7
			L517.4,93.7 M517.3,93.2L517.3,93.2 M512.2,93.5v-6c-1,0-2.9,0-4.7-0.1l-1.4,0c-1.2,0-2-1-2-2.2c0-1.2,1.1-2.2,2.3-2.2l1.1,0
			c1.8,0,3.7,0.1,4.7,0.1c0,0,0-22.5,0-22.6c0-1.8,3.2-2.4,4.5-2.6c2.1-0.2,4.3-0.2,6.4-0.1c3.7,0.2,10.6,1.1,14.7,6
			c4,4.7,4.5,12.1,1,17.2c-2.2,3.2-6,5.1-10.9,5.8c-3.5,0.5-7.8,0.6-10.8,0.7v6 M517.2,62.3v20.8c3-0.1,7.1-0.2,10.3-0.7
			c3.6-0.5,6.2-1.7,7.7-3.9c2.3-3.4,2.1-8.8-0.6-11.9c-3.1-3.7-9.4-4.4-11.8-4.5C522.1,62.1,519.2,62.2,517.2,62.3z"/>
		<path class="st1" d="M511.7,98h-5.3c-1.2,0-2.2-0.8-2.2-2s1-2,2.2-2h5.3l0,0l0,0l0,0"/>
		<path class="st1" d="M517.7,94h12.7c1.2,0,2.2,0.8,2.2,2s-1,2-2.2,2h-12.7"/>
	</g>
	<path class="st1" d="M567.5,124.1c0-0.4,0-0.7,0.2-1.1c1.4-3.8,2.2-6.9,2.5-10.1c0.4-4.8,0-11-4.5-13.7c-2.3-1.4-6.5-2-8.9-0.7
		c-1.1,0.6-1.6,1.4-1.7,2.8c-0.1,1.4-1.3,2.5-2.7,2.4c-1.4-0.1-2.4-1.3-2.3-2.8c0.2-3.1,1.8-5.5,4.4-6.9c2.1-1.1,4.5-1.4,7-1.2l0,0
		c-1.6-2.8-3.3-6.1-3.9-9.8c-0.6-3.8,0.1-8.9,3.8-12c1.9-1.6,4.5-2.5,7-2.4c1.4,0.1,2.5,1.3,2.4,2.7c-0.1,1.4-1.2,2.5-2.6,2.5
		c-1.3-0.1-2.6,0.4-3.5,1.2c-2.1,1.7-2.4,5-2,7.2c0.6,3.6,4.8,10,4.8,10c0.2-1,0.5-2,0.9-2.9c2.2-4.8,6.8-6.5,7-6.6
		c1.3-0.5,2.8,0.2,3.2,1.6c0.5,1.3-0.2,2.8-1.5,3.3c-0.1,0-2.8,1.1-4.1,4c-1,2.3-0.9,5.2,0.4,8.7c0.1,0.3,0.5,1.1,0.5,1.1
		c1.4,3.3,2,7.4,1.5,12.3c-0.1,1.3-0.3,2.6-0.6,3.9"/>
	<path class="st1" d="M569.6,90.7"/>
</g>
<g>
	<g>
		<path class="st3" d="M185.7,92.4c14.4-5.7,31.4-6.8,46-0.9"/>
		<g>
			<path class="st4" d="M224.7,93.4c2.4-0.9,3.6-1.2,6.2-1.8c-1.6-2.1-2.5-3.1-4.4-5.1c1.9,0.5,2.9,0.8,4.8,1.5
				c1.8,2.1,2.6,3.2,4,5.5c-2.6,0.4-3.9,0.7-6.4,1.3C227.3,94.1,226.4,93.9,224.7,93.4z"/>
		</g>
	</g>
</g>
<g>
	<g>
		<path class="st3" d="M399.7,92.4c14.5-5.7,31.4-6.8,46.1-0.9"/>
		<g>
			<path class="st4" d="M438.7,93.4c2.4-0.9,3.6-1.2,6.2-1.8c-1.6-2.1-2.5-3.1-4.4-5.1c1.9,0.5,2.9,0.8,4.8,1.5
				c1.8,2.1,2.6,3.2,4,5.5c-2.6,0.4-3.9,0.7-6.4,1.3C441.3,94.1,440.4,93.9,438.7,93.4z"/>
		</g>
	</g>
</g>
</svg>
