<?xml version="1.0" encoding="utf-8"?>
<!-- Generator: Adobe Illustrator 19.0.1, SVG Export Plug-In . SVG Version: 6.00 Build 0)  -->
<svg version="1.1" id="Слой_1" xmlns="http://www.w3.org/2000/svg" xmlns:xlink="http://www.w3.org/1999/xlink" x="0px" y="0px"
	 viewBox="0 0 649.2 180.3" style="enable-background:new 0 0 649.2 180.3;" xml:space="preserve">
<style type="text/css">
	.st0{fill:none;stroke:#83919E;stroke-width:3;stroke-miterlimit:10;}
	.st1{fill:none;stroke:#83919E;stroke-width:3;stroke-linecap:round;stroke-miterlimit:10;}
	.st2{fill:none;stroke:#83919E;stroke-width:3;stroke-linecap:round;stroke-linejoin:round;stroke-miterlimit:10;}
	.st3{fill:none;stroke:#83919E;stroke-width:3;stroke-linejoin:round;stroke-miterlimit:10;}
	.st4{fill:none;stroke:#83919E;stroke-width:3;stroke-linecap:round;stroke-linejoin:round;stroke-dasharray:10,10;}
	.st5{fill:#83919E;}
</style>
<g>
	<g>
		<path class="st0" d="M74.5,131.5c-6.1,8.4-22.8,7.9-29.1,0c-5.6-7.2-8.5-11.6-8.5-16.2v-19c0-4.7,3.3-9.6,8.2-10.7
			c7.1-1.7,22.1-1.9,29.1,0c4.8,1.3,8.2,6.1,8.2,10.7v19C82.3,119.9,79.6,124.4,74.5,131.5z"/>
		<path class="st0" d="M37,96c-7.3,0.5-17.5,4.6-21.3,11.5c-0.2,0.3-0.4,0.7-0.5,1.1c-1.1,2.7-1.2,6.3-0.3,8.9
			c1.1,3,2.9,5.8,4.5,8.6c0.1,0.2,0.2,0.3,0.3,0.5c1.1,2,2.4,4,3.4,6c0.6,1.3,1.2,2.5,2.3,3.5c1.9,1.8,4.6,2.3,7.1,2.3
			c5.5-0.1,10.7-2.4,15.7-4.3"/>
		<path class="st0" d="M82.7,96c7.3,0.5,17.5,4.6,21.3,11.5c0.2,0.3,0.4,0.7,0.5,1.1c1.1,2.7,1.2,6.3,0.3,8.9
			c-1.1,3-2.9,5.8-4.5,8.6c-0.1,0.2-0.2,0.3-0.3,0.5c-1.1,2-2.4,4-3.4,6c-0.6,1.3-1.2,2.5-2.3,3.5c-1.9,1.8-4.6,2.3-7.1,2.3
			c-5.5-0.1-10.7-2.4-15.7-4.3"/>
		<path class="st0" d="M81.5,92"/>
		<path class="st0" d="M29.8,138.5c-2.5,1.8-6,3.8-8.6,5.4c-2.1,1.3-4.8,2-7.3,1.5c-3.1-0.6-4.8-3.1-6.6-5.4
			c-1.9-2.4-4.1-5.3-4.2-8.7C3,128,4.8,124.5,7,122.3c2.3-2.3,5.1-4.3,7.6-6.4"/>
		<path class="st0" d="M89.9,138.3c2.5,1.8,6.4,4,9,5.6c2.1,1.3,4.8,2,7.3,1.5c3.1-0.6,4.8-3.1,6.6-5.4c1.9-2.4,4.1-5.3,4.2-8.7
			c0.1-3.3-1.7-6.7-3.9-8.9c-2.3-2.3-5.4-4.5-7.9-6.6"/>
		<path class="st0" d="M18.2,145.1l-1.3,4.4c-1.2,4.1-5.5,6.4-9.4,5.1c-6.2-2-7.4-10.3-4.3-15.6c0.5-0.9,1.1-1.7,1.8-2.4"/>
		<path class="st0" d="M101.9,145.1l1.3,4.4c1.2,4.1,5.5,6.4,9.4,5.1c6.2-2,7.4-10.3,4.3-15.6c-0.5-0.9-1.1-1.7-1.8-2.4"/>
	</g>
	<path class="st1" d="M61.5,86.7"/>
	<path class="st1" d="M114.8,101.1"/>
	<g>
		<line class="st1" x1="148.8" y1="37.9" x2="118.8" y2="68.1"/>
		<circle class="st1" cx="150.6" cy="35.8" r="2.7"/>
		<line class="st1" x1="135.1" y1="51.6" x2="152.1" y2="49.1"/>
		<line class="st1" x1="135" y1="52" x2="137.2" y2="34.4"/>
		<line class="st1" x1="164.6" y1="76.4" x2="122.5" y2="76.6"/>
		<circle class="st1" cx="167.4" cy="76.2" r="2.7"/>
		<line class="st1" x1="145.5" y1="76.8" x2="159" y2="86.7"/>
		<line class="st1" x1="144.9" y1="76.6" x2="158.9" y2="65.8"/>
		<line class="st1" x1="148.6" y1="114.9" x2="118.5" y2="85"/>
		<circle class="st1" cx="150.6" cy="116.7" r="2.7"/>
		<line class="st1" x1="134.3" y1="100.7" x2="137.3" y2="118.1"/>
		<line class="st1" x1="134.5" y1="101" x2="152" y2="103.3"/>
		<line class="st1" x1="110" y1="119.6" x2="109.9" y2="88.4"/>
		<line class="st1" x1="109.9" y1="110.9" x2="105.7" y2="116.7"/>
		<line class="st1" x1="109.9" y1="110.9" x2="120.6" y2="124.9"/>
		<line class="st1" x1="89" y1="97.1" x2="101.2" y2="84.8"/>
		<line class="st1" x1="55.7" y1="76.1" x2="98.4" y2="76"/>
		<circle class="st1" cx="53" cy="76.3" r="2.7"/>
		<line class="st1" x1="75.5" y1="75.9" x2="61.4" y2="65.8"/>
		<line class="st1" x1="75.5" y1="75.9" x2="64.9" y2="84"/>
		<line class="st1" x1="71.8" y1="37.6" x2="101.7" y2="67.3"/>
		<circle class="st1" cx="69.7" cy="35.8" r="2.7"/>
		<line class="st1" x1="85.9" y1="51.5" x2="83" y2="34.4"/>
		<line class="st1" x1="85.9" y1="51.5" x2="68.4" y2="49.2"/>
		<line class="st1" x1="110.3" y1="21.8" x2="110.5" y2="64.8"/>
		<circle class="st1" cx="110.2" cy="19.1" r="2.7"/>
		<line class="st1" x1="110.2" y1="41.7" x2="120.6" y2="27.4"/>
		<line class="st1" x1="110.5" y1="41.6" x2="99.8" y2="27.6"/>
		<circle class="st1" cx="110.2" cy="76.6" r="11.8"/>
		<path class="st1" d="M88.3,63c4.5-7.2,12.4-12,21.5-12c9.7,0,18.1,5.4,22.3,13.4"/>
		<path class="st1" d="M114.8,101.1c-1.6,0.3-3.2,0.5-4.9,0.5c-14,0-25.3-11.3-25.3-25.3c0-3.6,0.7-6.9,2.1-10"/>
		<path class="st1" d="M134,68.9c0.7,2.3,1.1,4.8,1.1,7.4c0,10.1-5.9,18.8-14.5,22.9"/>
	</g>
</g>
<g>
	<circle class="st0" cx="592.5" cy="104.3" r="55.2"/>
	<circle class="st0" cx="592.7" cy="104.1" r="48.2"/>
	<g>
		<path class="st2" d="M572.2,116.3V130c0,1.2-1.3,2.2-2.5,2.2c-1.2,0-2.5-1-2.5-2.2v-13.6 M571.9,116.2L571.9,116.2 M572.4,111.5
			L572.4,111.5 M572.3,111L572.3,111 M567.2,111.3v-6c-1,0-2.9,0-4.7-0.1l-1.4,0c-1.2,0-2-1-2-2.2c0-1.2,1.1-2.2,2.3-2.2l1.1,0
			c1.8,0,3.7,0.1,4.7,0.1c0,0,0-22.5,0-22.6c0-1.8,3.2-2.4,4.5-2.6c2.1-0.2,4.3-0.2,6.4-0.1c3.7,0.2,10.6,1.1,14.7,6
			c4,4.7,4.5,12.1,1,17.2c-2.2,3.2-6,5.1-10.9,5.8c-3.5,0.5-7.8,0.6-10.8,0.7v6 M572.2,80.1v20.8c3-0.1,7.1-0.2,10.3-0.7
			c3.6-0.5,6.2-1.7,7.7-3.9c2.3-3.4,2.1-8.8-0.6-11.9c-3.1-3.7-9.4-4.4-11.8-4.5C577.1,80,574.2,80,572.2,80.1z"/>
		<path class="st2" d="M566.7,115.8h-5.3c-1.2,0-2.2-0.8-2.2-2s1-2,2.2-2h5.3l0,0l0,0l0,0"/>
		<path class="st2" d="M572.7,111.8h12.7c1.2,0,2.2,0.8,2.2,2s-1,2-2.2,2h-12.7"/>
	</g>
	<path class="st3" d="M622.5,142c0-0.4,0-0.7,0.2-1.1c1.4-3.8,2.2-6.9,2.5-10.1c0.4-4.8,0-11-4.5-13.7c-2.3-1.4-6.5-2-8.9-0.7
		c-1.1,0.6-1.6,1.4-1.7,2.8c-0.1,1.4-1.3,2.5-2.7,2.4c-1.4-0.1-2.4-1.3-2.3-2.8c0.2-3.1,1.8-5.5,4.4-6.9c2.1-1.1,4.5-1.4,7-1.2l0,0
		c-1.6-2.8-3.3-6.1-3.9-9.8c-0.6-3.8,0.1-8.9,3.8-12c1.9-1.6,4.5-2.5,7-2.4c1.4,0.1,2.5,1.3,2.4,2.7c-0.1,1.4-1.2,2.5-2.6,2.5
		c-1.3-0.1-2.6,0.4-3.5,1.2c-2.1,1.7-2.4,5-2,7.2c0.6,3.6,4.8,10,4.8,10c0.2-1,0.5-2,0.9-2.9c2.2-4.8,6.8-6.5,7-6.6
		c1.3-0.5,2.8,0.2,3.2,1.6c0.5,1.3-0.2,2.8-1.5,3.3c-0.1,0-2.8,1.1-4.1,4c-1,2.3-0.9,5.2,0.4,8.7c0.1,0.3,0.5,1.1,0.5,1.1
		c1.4,3.3,2,7.4,1.5,12.3c-0.1,1.3-0.3,2.6-0.6,3.9"/>
	<path class="st0" d="M624.6,108.5"/>
</g>
<g>
	<g>
		<path class="st4" d="M182.8,115.1c14.4-5.7,31.2-6.7,45.8-0.8"/>
		<g>
			<path class="st5" d="M221.7,115.5c2.4-0.9,3.6-1.2,6.2-1.8c-1.6-2.1-2.4-3.1-4.3-5.1c1.9,0.5,2.8,0.8,4.7,1.4
				c1.7,2.1,2.5,3.2,3.9,5.4c-2.6,0.4-3.9,0.7-6.3,1.4C224.2,116.2,223.4,115.9,221.7,115.5z"/>
		</g>
	</g>
</g>
<g>
	<g>
		<path class="st4" d="M461.8,115.1c14.4-5.7,31.2-6.7,45.8-0.8"/>
		<g>
			<path class="st5" d="M500.7,115.5c2.4-0.9,3.6-1.2,6.2-1.8c-1.6-2.1-2.4-3.1-4.3-5.1c1.9,0.5,2.8,0.8,4.7,1.4
				c1.7,2.1,2.5,3.2,3.9,5.4c-2.6,0.4-3.9,0.7-6.3,1.4C503.2,116.2,502.4,115.9,500.7,115.5z"/>
		</g>
	</g>
</g>
<g>
	<g>
		<path class="st0" d="M334,70.4c3,7.2-3.9,17.8-11.4,18.7c-6.8,0.8-10.8,1-13.8-0.9l-12.2-7.4c-3-1.8-4.9-5.9-3.7-9.5
			c1.7-5.2,7.4-15,11.4-18.7c2.8-2.6,7.1-2.9,10.1-1.1l12.2,7.4C329.6,60.8,331.5,64.3,334,70.4z"/>
		<path class="st0" d="M296.5,80.6c-2.5,4.9-3.9,13.1-0.9,18.2c0.1,0.3,0.3,0.5,0.5,0.8c1.3,1.8,3.6,3.2,5.6,3.7
			c2.3,0.5,4.9,0.4,7.3,0.5c0.2,0,0.3,0,0.5,0c1.7,0.1,3.5,0,5.2,0.2c1.1,0.1,2.1,0.2,3.2-0.1c1.9-0.5,3.3-2,4.3-3.7
			c2.1-3.6,2.6-7.8,3.4-11.8"/>
		<path class="st0" d="M314.4,51.1c3.2-4.5,9.8-9.5,15.8-9.2c0.3,0,0.6,0.1,0.9,0.1c2.2,0.4,4.5,1.7,5.8,3.3
			c1.5,1.9,2.6,4.2,3.8,6.3c0.1,0.1,0.1,0.3,0.2,0.4c0.8,1.5,1.6,3.1,2.6,4.5c0.6,0.9,1.2,1.8,1.4,2.8c0.4,2-0.3,3.9-1.3,5.5
			c-2.2,3.5-5.7,5.9-9,8.4"/>
		<path class="st0" d="M311.3,50.4"/>
		<path class="st0" d="M321,101.9c0.2,2.3,0.1,5.4,0.1,7.6c0,1.9-0.6,3.9-1.9,5.3c-1.6,1.7-3.8,1.9-6.1,2.2
			c-2.3,0.3-5.1,0.6-7.2-0.7c-2.1-1.2-3.6-3.7-4.2-6c-0.6-2.4-0.8-5-1.1-7.4"/>
		<path class="st0" d="M344.4,63.1c2.1-0.9,5.1-2.5,7.1-3.6c1.6-0.9,3.2-2.3,3.8-4.1c0.8-2.2-0.1-4.3-0.9-6.4
			c-0.8-2.2-1.8-4.7-4-6.1c-2.1-1.3-5-1.5-7.3-1c-2.4,0.6-5.1,1.7-7.4,2.5"/>
		<path class="st0" d="M320.7,111.9l2.3,2.6c2.1,2.4,2,6-0.4,8.1c-3.8,3.2-9.5,0.8-11.7-3.3c-0.4-0.7-0.6-1.4-0.8-2.1"/>
		<path class="st0" d="M353.6,58l3.4,0.9c3.1,0.8,6.3-1,7-4.1c1.1-4.8-3.7-8.8-8.3-8.9c-0.8,0-1.5,0.1-2.2,0.2"/>
	</g>
	<path class="st2" d="M286.2,117.2"/>
	<polyline class="st2" points="286.2,106.7 286.2,36.2 279.4,18.2 382.9,18.2 376.2,36.2 376.2,142.3 382.9,162.2 279.4,162.2 
		286.2,142.3 286.2,126.6 	"/>
	<line class="st2" x1="286.2" y1="117.2" x2="286.2" y2="112.8"/>
	<path class="st2" d="M279.4,18.2l-0.7-8.3l6.1-7c1.4-1.6,3.9-1.6,5.3,0l6.1,7l6.4-7.3c1.2-1.4,3.5-1.4,4.8,0l6.4,7.3l7-7.1
		c0.9-0.9,2.5-0.9,3.4,0l7.1,7.1l6.1-6.9c1.4-1.6,4-1.6,5.4,0l6.1,6.9l5.9-6.7c1.5-1.7,4.3-1.7,5.8,0l5.9,6.7l6.2-7.1
		c1.3-1.5,3.8-1.5,5.1,0l6.2,7.1l-0.7,8.3"/>
	<path class="st2" d="M279.4,162.2l-0.7,8.3l6.1,7c1.4,1.6,3.9,1.6,5.3,0l6.1-7l6.4,7.3c1.2,1.4,3.5,1.4,4.8,0l6.4-7.3l7,7.1
		c0.9,0.9,2.5,0.9,3.4,0l7.1-7.1l6.1,6.9c1.4,1.6,4,1.6,5.4,0l6.1-6.9l5.9,6.7c1.5,1.7,4.3,1.7,5.8,0l5.9-6.7l6.2,7.1
		c1.3,1.5,3.8,1.5,5.1,0l6.2-7.1l-0.7-8.3"/>
	<line class="st1" x1="317.7" y1="150.8" x2="363.7" y2="150.8"/>
	<line class="st1" x1="326.7" y1="139.8" x2="362.7" y2="139.8"/>
	<line class="st1" x1="332.7" y1="129.8" x2="358.7" y2="129.8"/>
	<line class="st1" x1="337.7" y1="93.8" x2="366.7" y2="93.8"/>
	<g>
		<g>
			<line class="st1" x1="435" y1="93.8" x2="410.7" y2="108.1"/>
			<line class="st1" x1="428.1" y1="98" x2="435.7" y2="103"/>
			<line class="st1" x1="428.1" y1="98" x2="427.6" y2="89"/>
		</g>
		<g>
			<line class="st1" x1="435.2" y1="122.7" x2="410.7" y2="108.8"/>
			<line class="st1" x1="428.1" y1="118.8" x2="427.6" y2="127.8"/>
			<line class="st1" x1="428.1" y1="118.8" x2="435.7" y2="113.9"/>
		</g>
		<g>
			<line class="st1" x1="410.3" y1="137.3" x2="410.1" y2="109.1"/>
			<line class="st1" x1="410.1" y1="129.3" x2="402" y2="133.3"/>
			<line class="st1" x1="410.1" y1="129.3" x2="418.2" y2="133.3"/>
		</g>
		<g>
			<line class="st1" x1="385.2" y1="123.1" x2="409.5" y2="108.8"/>
			<line class="st1" x1="392.1" y1="118.8" x2="384.5" y2="113.9"/>
			<line class="st1" x1="392.1" y1="118.8" x2="392.6" y2="127.8"/>
		</g>
		<g>
			<line class="st1" x1="385" y1="94.2" x2="409.5" y2="108.1"/>
			<line class="st1" x1="392.1" y1="98" x2="392.6" y2="89"/>
			<line class="st1" x1="392.1" y1="98" x2="384.5" y2="103"/>
		</g>
		<g>
			<line class="st1" x1="409.9" y1="79.5" x2="410.1" y2="107.8"/>
			<line class="st1" x1="410.1" y1="87.6" x2="418.2" y2="83.6"/>
			<line class="st1" x1="410.1" y1="87.6" x2="402" y2="83.6"/>
		</g>
	</g>
	<g>
		<g>
			<line class="st1" x1="273.1" y1="50.1" x2="253.1" y2="61.9"/>
			<line class="st1" x1="267.5" y1="53.6" x2="273.7" y2="57.6"/>
			<line class="st1" x1="267.5" y1="53.6" x2="267" y2="46.1"/>
		</g>
		<g>
			<line class="st1" x1="273.3" y1="73.9" x2="253.1" y2="62.4"/>
			<line class="st1" x1="267.5" y1="70.7" x2="267" y2="78.1"/>
			<line class="st1" x1="267.5" y1="70.7" x2="273.7" y2="66.6"/>
		</g>
		<g>
			<line class="st1" x1="252.8" y1="85.9" x2="252.6" y2="62.7"/>
			<line class="st1" x1="252.6" y1="79.3" x2="246" y2="82.6"/>
			<line class="st1" x1="252.6" y1="79.3" x2="259.3" y2="82.6"/>
		</g>
		<g>
			<line class="st1" x1="232.1" y1="74.2" x2="252.1" y2="62.4"/>
			<line class="st1" x1="237.7" y1="70.7" x2="231.5" y2="66.6"/>
			<line class="st1" x1="237.7" y1="70.7" x2="238.2" y2="78.1"/>
		</g>
		<g>
			<line class="st1" x1="231.9" y1="50.4" x2="252.1" y2="61.9"/>
			<line class="st1" x1="237.7" y1="53.6" x2="238.2" y2="46.1"/>
			<line class="st1" x1="237.7" y1="53.6" x2="231.5" y2="57.6"/>
		</g>
		<g>
			<line class="st1" x1="252.4" y1="38.3" x2="252.6" y2="61.6"/>
			<line class="st1" x1="252.6" y1="45" x2="259.3" y2="41.6"/>
			<line class="st1" x1="252.6" y1="45" x2="246" y2="41.6"/>
		</g>
	</g>
</g>
</svg>
